%TF.GenerationSoftware,KiCad,Pcbnew,9.0.2*%
%TF.CreationDate,2026-02-04T12:36:14+01:00*%
%TF.ProjectId,carte,63617274-652e-46b6-9963-61645f706362,rev?*%
%TF.SameCoordinates,Original*%
%TF.FileFunction,Legend,Bot*%
%TF.FilePolarity,Positive*%
%FSLAX46Y46*%
G04 Gerber Fmt 4.6, Leading zero omitted, Abs format (unit mm)*
G04 Created by KiCad (PCBNEW 9.0.2) date 2026-02-04 12:36:14*
%MOMM*%
%LPD*%
G01*
G04 APERTURE LIST*
%ADD10C,0.150000*%
%ADD11C,0.120000*%
G04 APERTURE END LIST*
D10*
X84769285Y-21729104D02*
X84293095Y-21729104D01*
X84864523Y-22014819D02*
X84531190Y-21014819D01*
X84531190Y-21014819D02*
X84197857Y-22014819D01*
X83912142Y-21110057D02*
X83864523Y-21062438D01*
X83864523Y-21062438D02*
X83769285Y-21014819D01*
X83769285Y-21014819D02*
X83531190Y-21014819D01*
X83531190Y-21014819D02*
X83435952Y-21062438D01*
X83435952Y-21062438D02*
X83388333Y-21110057D01*
X83388333Y-21110057D02*
X83340714Y-21205295D01*
X83340714Y-21205295D02*
X83340714Y-21300533D01*
X83340714Y-21300533D02*
X83388333Y-21443390D01*
X83388333Y-21443390D02*
X83959761Y-22014819D01*
X83959761Y-22014819D02*
X83340714Y-22014819D01*
D11*
%TO.C,A2*%
X119745000Y-55090000D02*
X119745000Y-66770000D01*
X119745000Y-66770000D02*
X113395000Y-66770000D01*
X115295000Y-25880000D02*
X115295000Y-35020000D01*
X115295000Y-35020000D02*
X113395000Y-35020000D01*
X113395000Y-22700000D02*
X113395000Y-25880000D01*
X113395000Y-25880000D02*
X115295000Y-25880000D01*
X113395000Y-35020000D02*
X113395000Y-55090000D01*
X113395000Y-55090000D02*
X119745000Y-55090000D01*
X113395000Y-66770000D02*
X113395000Y-76300000D01*
X113395000Y-76300000D02*
X48745000Y-76300000D01*
X48745000Y-76300000D02*
X47095000Y-74650000D01*
X47095000Y-22700000D02*
X113395000Y-22700000D01*
X47095000Y-25370000D02*
X47095000Y-22700000D01*
X47095000Y-63220000D02*
X44555000Y-60680000D01*
X47095000Y-74650000D02*
X47095000Y-63220000D01*
X44555000Y-27910000D02*
X47095000Y-25370000D01*
X44555000Y-60680000D02*
X44555000Y-27910000D01*
%TD*%
M02*
