G04 #@! TF.GenerationSoftware,KiCad,Pcbnew,9.0.2*
G04 #@! TF.CreationDate,2026-05-20T13:58:29+02:00*
G04 #@! TF.ProjectId,carte,63617274-652e-46b6-9963-61645f706362,rev?*
G04 #@! TF.SameCoordinates,Original*
G04 #@! TF.FileFunction,Copper,L1,Top*
G04 #@! TF.FilePolarity,Positive*
%FSLAX46Y46*%
G04 Gerber Fmt 4.6, Leading zero omitted, Abs format (unit mm)*
G04 Created by KiCad (PCBNEW 9.0.2) date 2026-05-20 13:58:29*
%MOMM*%
%LPD*%
G01*
G04 APERTURE LIST*
%ADD10C,0.300000*%
G04 #@! TA.AperFunction,ComponentPad*
%ADD11R,1.700000X1.700000*%
G04 #@! TD*
G04 #@! TA.AperFunction,ComponentPad*
%ADD12C,1.700000*%
G04 #@! TD*
G04 #@! TA.AperFunction,ComponentPad*
%ADD13R,1.600000X1.600000*%
G04 #@! TD*
G04 #@! TA.AperFunction,ComponentPad*
%ADD14O,1.600000X1.600000*%
G04 #@! TD*
G04 #@! TA.AperFunction,Conductor*
%ADD15C,1.000000*%
G04 #@! TD*
G04 APERTURE END LIST*
D10*
G36*
X80672799Y-51983392D02*
G01*
X80781233Y-52091825D01*
X80897368Y-52324095D01*
X80897368Y-53110418D01*
X80781233Y-53342688D01*
X80672799Y-53451122D01*
X80440529Y-53567257D01*
X80082778Y-53567257D01*
X79850507Y-53451122D01*
X79742074Y-53342688D01*
X79625939Y-53110418D01*
X79625939Y-52324095D01*
X79742074Y-52091825D01*
X79850506Y-51983392D01*
X80082778Y-51867257D01*
X80440529Y-51867257D01*
X80672799Y-51983392D01*
G37*
G36*
X71101371Y-50983392D02*
G01*
X71209804Y-51091825D01*
X71325939Y-51324095D01*
X71325939Y-51681847D01*
X71209804Y-51914117D01*
X71101371Y-52022549D01*
X70869100Y-52138685D01*
X69911653Y-52138685D01*
X69911653Y-50867257D01*
X70869100Y-50867257D01*
X71101371Y-50983392D01*
G37*
G36*
X94102025Y-54200590D02*
G01*
X69278320Y-54200590D01*
X69278320Y-50717257D01*
X69611653Y-50717257D01*
X69611653Y-53717257D01*
X69614535Y-53746521D01*
X69636933Y-53800593D01*
X69678317Y-53841977D01*
X69732389Y-53864375D01*
X69790917Y-53864375D01*
X69844989Y-53841977D01*
X69886373Y-53800593D01*
X69908771Y-53746521D01*
X69911653Y-53717257D01*
X69911653Y-52438685D01*
X70904510Y-52438685D01*
X70933774Y-52435803D01*
X70938752Y-52433740D01*
X70944128Y-52433359D01*
X70971592Y-52422849D01*
X71257307Y-52279992D01*
X71269900Y-52272064D01*
X71273560Y-52270549D01*
X71277679Y-52267167D01*
X71282193Y-52264327D01*
X71284789Y-52261333D01*
X71296291Y-52251894D01*
X71439148Y-52109037D01*
X71448588Y-52097534D01*
X71451581Y-52094939D01*
X71454419Y-52090429D01*
X71457803Y-52086307D01*
X71459319Y-52082644D01*
X71467246Y-52070053D01*
X71610103Y-51784339D01*
X71620613Y-51756876D01*
X71620995Y-51751498D01*
X71623057Y-51746521D01*
X71625939Y-51717257D01*
X72611653Y-51717257D01*
X72611653Y-53717257D01*
X72614535Y-53746521D01*
X72636933Y-53800593D01*
X72678317Y-53841977D01*
X72732389Y-53864375D01*
X72790917Y-53864375D01*
X72844989Y-53841977D01*
X72886373Y-53800593D01*
X72908771Y-53746521D01*
X72911653Y-53717257D01*
X72911653Y-52324095D01*
X73027787Y-52091825D01*
X73136221Y-51983392D01*
X73368492Y-51867257D01*
X73618796Y-51867257D01*
X73648060Y-51864375D01*
X73702132Y-51841977D01*
X73743516Y-51800593D01*
X73765914Y-51746521D01*
X73765914Y-51717257D01*
X74468796Y-51717257D01*
X74468796Y-53288685D01*
X74471678Y-53317949D01*
X74473740Y-53322927D01*
X74474122Y-53328303D01*
X74484632Y-53355767D01*
X74627489Y-53641482D01*
X74630569Y-53646376D01*
X74631339Y-53648684D01*
X74633831Y-53651558D01*
X74643154Y-53666368D01*
X74657362Y-53678690D01*
X74669685Y-53692899D01*
X74684494Y-53702221D01*
X74687369Y-53704714D01*
X74689676Y-53705483D01*
X74694571Y-53708564D01*
X74980286Y-53851421D01*
X75007750Y-53861931D01*
X75013125Y-53862312D01*
X75018104Y-53864375D01*
X75047368Y-53867257D01*
X75475939Y-53867257D01*
X75505203Y-53864375D01*
X75510180Y-53862313D01*
X75515558Y-53861931D01*
X75543021Y-53851421D01*
X75757178Y-53744342D01*
X75757393Y-53746521D01*
X75779791Y-53800593D01*
X75821175Y-53841977D01*
X75875247Y-53864375D01*
X75933775Y-53864375D01*
X75987847Y-53841977D01*
X76029231Y-53800593D01*
X76051629Y-53746521D01*
X76054511Y-53717257D01*
X76054511Y-51739179D01*
X76898978Y-51739179D01*
X76906107Y-51767707D01*
X77620393Y-53767707D01*
X77632949Y-53794297D01*
X77638002Y-53799879D01*
X77641225Y-53806682D01*
X77657497Y-53821413D01*
X77672229Y-53837686D01*
X77679031Y-53840908D01*
X77684614Y-53845962D01*
X77705288Y-53853345D01*
X77725121Y-53862740D01*
X77732639Y-53863113D01*
X77739732Y-53865647D01*
X77761654Y-53864556D01*
X77783576Y-53865647D01*
X77790668Y-53863113D01*
X77798187Y-53862740D01*
X77818024Y-53853343D01*
X77838694Y-53845961D01*
X77844274Y-53840909D01*
X77851079Y-53837686D01*
X77865812Y-53821411D01*
X77882083Y-53806682D01*
X77885305Y-53799879D01*
X77890359Y-53794297D01*
X77902915Y-53767707D01*
X78431137Y-52288685D01*
X79325939Y-52288685D01*
X79325939Y-53145828D01*
X79328821Y-53175092D01*
X79330882Y-53180069D01*
X79331265Y-53185447D01*
X79341775Y-53212910D01*
X79484632Y-53498624D01*
X79492559Y-53511217D01*
X79494075Y-53514877D01*
X79497456Y-53518996D01*
X79500297Y-53523510D01*
X79503290Y-53526106D01*
X79512730Y-53537608D01*
X79655587Y-53680466D01*
X79667089Y-53689906D01*
X79669685Y-53692899D01*
X79674194Y-53695737D01*
X79678317Y-53699121D01*
X79681979Y-53700637D01*
X79694571Y-53708564D01*
X79980286Y-53851421D01*
X80007750Y-53861931D01*
X80013125Y-53862312D01*
X80018104Y-53864375D01*
X80047368Y-53867257D01*
X80475939Y-53867257D01*
X80505203Y-53864375D01*
X80510180Y-53862313D01*
X80515558Y-53861931D01*
X80543021Y-53851421D01*
X80828735Y-53708564D01*
X80841328Y-53700636D01*
X80844988Y-53699121D01*
X80849107Y-53695739D01*
X80853621Y-53692899D01*
X80856217Y-53689905D01*
X80867719Y-53680466D01*
X81010577Y-53537608D01*
X81020016Y-53526106D01*
X81023010Y-53523510D01*
X81025850Y-53518996D01*
X81029232Y-53514877D01*
X81030747Y-53511217D01*
X81038675Y-53498624D01*
X81181532Y-53212910D01*
X81192042Y-53185447D01*
X81192424Y-53180069D01*
X81194486Y-53175092D01*
X81197368Y-53145828D01*
X81197368Y-52288685D01*
X81194486Y-52259421D01*
X81192424Y-52254443D01*
X81192042Y-52249066D01*
X81181532Y-52221603D01*
X81143644Y-52145828D01*
X82040225Y-52145828D01*
X82040225Y-52288685D01*
X82043107Y-52317949D01*
X82045169Y-52322927D01*
X82045551Y-52328303D01*
X82056061Y-52355767D01*
X82198918Y-52641482D01*
X82201998Y-52646376D01*
X82202768Y-52648684D01*
X82205260Y-52651558D01*
X82214583Y-52666368D01*
X82228791Y-52678690D01*
X82241114Y-52692899D01*
X82255923Y-52702221D01*
X82258798Y-52704714D01*
X82261105Y-52705483D01*
X82266000Y-52708564D01*
X82551715Y-52851421D01*
X82579179Y-52861931D01*
X82584554Y-52862312D01*
X82589533Y-52864375D01*
X82618797Y-52867257D01*
X83011958Y-52867257D01*
X83221278Y-52971917D01*
X83325939Y-53181238D01*
X83325939Y-53253275D01*
X83221278Y-53462596D01*
X83011958Y-53567257D01*
X82511349Y-53567257D01*
X82257307Y-53440236D01*
X82229844Y-53429726D01*
X82171463Y-53425578D01*
X82115941Y-53444086D01*
X82071726Y-53482432D01*
X82045551Y-53534781D01*
X82041403Y-53593162D01*
X82059911Y-53648684D01*
X82098257Y-53692899D01*
X82123143Y-53708564D01*
X82408857Y-53851421D01*
X82436320Y-53861931D01*
X82441697Y-53862313D01*
X82446675Y-53864375D01*
X82475939Y-53867257D01*
X83047368Y-53867257D01*
X83076632Y-53864375D01*
X83081609Y-53862313D01*
X83086987Y-53861931D01*
X83114450Y-53851421D01*
X83400164Y-53708564D01*
X83405058Y-53705483D01*
X83407366Y-53704714D01*
X83410240Y-53702221D01*
X83425050Y-53692899D01*
X83437372Y-53678690D01*
X83451581Y-53666368D01*
X83460903Y-53651558D01*
X83463396Y-53648684D01*
X83464165Y-53646376D01*
X83467246Y-53641482D01*
X83610103Y-53355767D01*
X83620613Y-53328303D01*
X83620994Y-53322927D01*
X83623057Y-53317949D01*
X83625939Y-53288685D01*
X83625939Y-53145828D01*
X83623057Y-53116564D01*
X83620995Y-53111586D01*
X83620613Y-53106209D01*
X83610103Y-53078746D01*
X83467246Y-52793032D01*
X83464165Y-52788137D01*
X83463396Y-52785830D01*
X83460903Y-52782955D01*
X83451581Y-52768146D01*
X83437372Y-52755823D01*
X83425050Y-52741615D01*
X83410240Y-52732292D01*
X83407366Y-52729800D01*
X83405058Y-52729030D01*
X83400164Y-52725950D01*
X83114450Y-52583093D01*
X83086987Y-52572583D01*
X83081609Y-52572200D01*
X83076632Y-52570139D01*
X83047368Y-52567257D01*
X82654207Y-52567257D01*
X82444885Y-52462596D01*
X82340225Y-52253275D01*
X82340225Y-52181238D01*
X82444885Y-51971917D01*
X82654207Y-51867257D01*
X83011958Y-51867257D01*
X83266000Y-51994278D01*
X83293463Y-52004788D01*
X83351844Y-52008936D01*
X83407366Y-51990428D01*
X83451581Y-51952082D01*
X83477756Y-51899733D01*
X83481904Y-51841353D01*
X83463396Y-51785830D01*
X83425050Y-51741615D01*
X83400164Y-51725950D01*
X83324250Y-51687993D01*
X84185964Y-51687993D01*
X84185964Y-51746521D01*
X84208362Y-51800593D01*
X84249746Y-51841977D01*
X84303818Y-51864375D01*
X84333082Y-51867257D01*
X84611653Y-51867257D01*
X84611653Y-53288685D01*
X84614535Y-53317949D01*
X84616597Y-53322927D01*
X84616979Y-53328303D01*
X84627489Y-53355767D01*
X84770346Y-53641482D01*
X84773426Y-53646376D01*
X84774196Y-53648684D01*
X84776688Y-53651558D01*
X84786011Y-53666368D01*
X84800219Y-53678690D01*
X84812542Y-53692899D01*
X84827351Y-53702221D01*
X84830226Y-53704714D01*
X84832533Y-53705483D01*
X84837428Y-53708564D01*
X85123143Y-53851421D01*
X85150607Y-53861931D01*
X85155982Y-53862312D01*
X85160961Y-53864375D01*
X85190225Y-53867257D01*
X85475939Y-53867257D01*
X85505203Y-53864375D01*
X85559275Y-53841977D01*
X85600659Y-53800593D01*
X85623057Y-53746521D01*
X85623057Y-53687993D01*
X85600659Y-53633921D01*
X85559275Y-53592537D01*
X85505203Y-53570139D01*
X85475939Y-53567257D01*
X85225635Y-53567257D01*
X85016313Y-53462596D01*
X84911653Y-53253275D01*
X84911653Y-51867257D01*
X85475939Y-51867257D01*
X85505203Y-51864375D01*
X85559275Y-51841977D01*
X85600659Y-51800593D01*
X85623057Y-51746521D01*
X85623057Y-51687993D01*
X85600659Y-51633921D01*
X85559275Y-51592537D01*
X85505203Y-51570139D01*
X85475939Y-51567257D01*
X84911653Y-51567257D01*
X84911653Y-50717257D01*
X88611653Y-50717257D01*
X88611653Y-53717257D01*
X88614535Y-53746521D01*
X88636933Y-53800593D01*
X88678317Y-53841977D01*
X88732389Y-53864375D01*
X88790917Y-53864375D01*
X88844989Y-53841977D01*
X88886373Y-53800593D01*
X88908771Y-53746521D01*
X88911653Y-53717257D01*
X88911653Y-52295828D01*
X89761653Y-52295828D01*
X89790917Y-52292946D01*
X89844989Y-52270548D01*
X89886373Y-52229164D01*
X89908771Y-52175092D01*
X89908771Y-52116564D01*
X89886373Y-52062492D01*
X89844989Y-52021108D01*
X89790917Y-51998710D01*
X89761653Y-51995828D01*
X88911653Y-51995828D01*
X88911653Y-50867257D01*
X90190225Y-50867257D01*
X90219489Y-50864375D01*
X90273561Y-50841977D01*
X90314945Y-50800593D01*
X90337343Y-50746521D01*
X90337343Y-50722864D01*
X90897473Y-50722864D01*
X90901447Y-50752000D01*
X91615733Y-53752000D01*
X91619194Y-53762043D01*
X91619673Y-53765644D01*
X91621557Y-53768899D01*
X91625315Y-53779801D01*
X91638085Y-53797446D01*
X91648996Y-53816293D01*
X91655111Y-53820974D01*
X91659628Y-53827215D01*
X91678178Y-53838630D01*
X91695471Y-53851867D01*
X91702912Y-53853851D01*
X91709472Y-53857888D01*
X91730979Y-53861336D01*
X91752023Y-53866948D01*
X91759655Y-53865933D01*
X91767261Y-53867153D01*
X91788455Y-53862106D01*
X91810041Y-53859238D01*
X91816704Y-53855380D01*
X91824198Y-53853596D01*
X91841843Y-53840825D01*
X91860690Y-53829915D01*
X91865371Y-53823799D01*
X91871612Y-53819283D01*
X91883027Y-53800732D01*
X91896264Y-53783440D01*
X91900311Y-53772645D01*
X91902285Y-53769439D01*
X91902860Y-53765848D01*
X91906589Y-53755906D01*
X92333082Y-52156555D01*
X92759576Y-53755906D01*
X92763304Y-53765848D01*
X92763880Y-53769439D01*
X92765853Y-53772645D01*
X92769901Y-53783440D01*
X92783137Y-53800732D01*
X92794553Y-53819283D01*
X92800793Y-53823799D01*
X92805475Y-53829915D01*
X92824319Y-53840824D01*
X92841967Y-53853596D01*
X92849461Y-53855380D01*
X92856125Y-53859238D01*
X92877714Y-53862107D01*
X92898904Y-53867152D01*
X92906506Y-53865933D01*
X92914142Y-53866948D01*
X92935189Y-53861335D01*
X92956693Y-53857888D01*
X92963252Y-53853851D01*
X92970694Y-53851867D01*
X92987986Y-53838630D01*
X93006537Y-53827215D01*
X93011053Y-53820974D01*
X93017169Y-53816293D01*
X93028078Y-53797448D01*
X93040850Y-53779801D01*
X93044608Y-53768896D01*
X93046492Y-53765643D01*
X93046970Y-53762043D01*
X93050432Y-53752000D01*
X93764718Y-50752000D01*
X93768692Y-50722864D01*
X93759428Y-50665075D01*
X93728755Y-50615231D01*
X93681341Y-50580918D01*
X93624404Y-50567361D01*
X93566615Y-50576626D01*
X93516771Y-50607299D01*
X93482458Y-50654713D01*
X93472876Y-50682514D01*
X92896277Y-53104226D01*
X92478017Y-51535751D01*
X92475445Y-51528894D01*
X92475063Y-51526013D01*
X92473082Y-51522592D01*
X92467692Y-51508217D01*
X92455658Y-51492496D01*
X92445740Y-51475364D01*
X92438024Y-51469457D01*
X92432118Y-51461742D01*
X92414986Y-51451824D01*
X92399265Y-51439790D01*
X92389874Y-51437285D01*
X92381468Y-51432419D01*
X92361846Y-51429811D01*
X92342713Y-51424709D01*
X92333082Y-51425988D01*
X92323451Y-51424709D01*
X92304317Y-51429811D01*
X92284696Y-51432419D01*
X92276289Y-51437285D01*
X92266899Y-51439790D01*
X92251177Y-51451824D01*
X92234046Y-51461742D01*
X92228139Y-51469457D01*
X92220424Y-51475364D01*
X92210506Y-51492495D01*
X92198472Y-51508217D01*
X92193080Y-51522594D01*
X92191101Y-51526014D01*
X92190718Y-51528894D01*
X92188147Y-51535751D01*
X91769887Y-53104226D01*
X91193289Y-50682514D01*
X91183707Y-50654713D01*
X91149394Y-50607299D01*
X91099550Y-50576626D01*
X91041761Y-50567362D01*
X90984824Y-50580918D01*
X90937410Y-50615231D01*
X90906737Y-50665075D01*
X90897473Y-50722864D01*
X90337343Y-50722864D01*
X90337343Y-50687993D01*
X90314945Y-50633921D01*
X90273561Y-50592537D01*
X90219489Y-50570139D01*
X90190225Y-50567257D01*
X88761653Y-50567257D01*
X88732389Y-50570139D01*
X88678317Y-50592537D01*
X88636933Y-50633921D01*
X88614535Y-50687993D01*
X88611653Y-50717257D01*
X84911653Y-50717257D01*
X84908771Y-50687993D01*
X84886373Y-50633921D01*
X84844989Y-50592537D01*
X84790917Y-50570139D01*
X84732389Y-50570139D01*
X84678317Y-50592537D01*
X84636933Y-50633921D01*
X84614535Y-50687993D01*
X84611653Y-50717257D01*
X84611653Y-51567257D01*
X84333082Y-51567257D01*
X84303818Y-51570139D01*
X84249746Y-51592537D01*
X84208362Y-51633921D01*
X84185964Y-51687993D01*
X83324250Y-51687993D01*
X83114450Y-51583093D01*
X83086987Y-51572583D01*
X83081609Y-51572200D01*
X83076632Y-51570139D01*
X83047368Y-51567257D01*
X82618797Y-51567257D01*
X82589533Y-51570139D01*
X82584554Y-51572201D01*
X82579179Y-51572583D01*
X82551715Y-51583093D01*
X82266000Y-51725950D01*
X82261105Y-51729030D01*
X82258798Y-51729800D01*
X82255923Y-51732292D01*
X82241114Y-51741615D01*
X82228791Y-51755823D01*
X82214583Y-51768146D01*
X82205260Y-51782955D01*
X82202768Y-51785830D01*
X82201998Y-51788137D01*
X82198918Y-51793032D01*
X82056061Y-52078746D01*
X82045551Y-52106209D01*
X82045168Y-52111586D01*
X82043107Y-52116564D01*
X82040225Y-52145828D01*
X81143644Y-52145828D01*
X81038675Y-51935889D01*
X81030748Y-51923297D01*
X81029232Y-51919635D01*
X81025848Y-51915512D01*
X81023010Y-51911003D01*
X81020017Y-51908407D01*
X81010577Y-51896905D01*
X80867719Y-51754048D01*
X80856217Y-51744608D01*
X80853621Y-51741615D01*
X80849107Y-51738774D01*
X80844988Y-51735393D01*
X80841328Y-51733877D01*
X80828735Y-51725950D01*
X80543021Y-51583093D01*
X80515558Y-51572583D01*
X80510180Y-51572200D01*
X80505203Y-51570139D01*
X80475939Y-51567257D01*
X80047368Y-51567257D01*
X80018104Y-51570139D01*
X80013125Y-51572201D01*
X80007750Y-51572583D01*
X79980286Y-51583093D01*
X79694571Y-51725950D01*
X79681979Y-51733876D01*
X79678317Y-51735393D01*
X79674194Y-51738776D01*
X79669685Y-51741615D01*
X79667089Y-51744607D01*
X79655587Y-51754048D01*
X79512730Y-51896905D01*
X79503290Y-51908406D01*
X79500297Y-51911003D01*
X79497456Y-51915516D01*
X79494075Y-51919636D01*
X79492559Y-51923295D01*
X79484632Y-51935889D01*
X79341775Y-52221603D01*
X79331265Y-52249066D01*
X79330882Y-52254443D01*
X79328821Y-52259421D01*
X79325939Y-52288685D01*
X78431137Y-52288685D01*
X78617200Y-51767707D01*
X78624329Y-51739179D01*
X78621422Y-51680724D01*
X78596368Y-51627832D01*
X78552979Y-51588552D01*
X78497861Y-51568867D01*
X78439406Y-51571774D01*
X78386514Y-51596828D01*
X78347234Y-51640217D01*
X78334678Y-51666806D01*
X77761654Y-53271275D01*
X77188629Y-51666807D01*
X77176073Y-51640217D01*
X77136793Y-51596828D01*
X77083901Y-51571774D01*
X77025446Y-51568867D01*
X76970328Y-51588552D01*
X76926939Y-51627832D01*
X76901885Y-51680724D01*
X76898978Y-51739179D01*
X76054511Y-51739179D01*
X76054511Y-51717257D01*
X76051629Y-51687993D01*
X76029231Y-51633921D01*
X75987847Y-51592537D01*
X75933775Y-51570139D01*
X75875247Y-51570139D01*
X75821175Y-51592537D01*
X75779791Y-51633921D01*
X75757393Y-51687993D01*
X75754511Y-51717257D01*
X75754511Y-53369410D01*
X75672799Y-53451122D01*
X75440529Y-53567257D01*
X75082778Y-53567257D01*
X74873456Y-53462596D01*
X74768796Y-53253275D01*
X74768796Y-51717257D01*
X74765914Y-51687993D01*
X74743516Y-51633921D01*
X74702132Y-51592537D01*
X74648060Y-51570139D01*
X74589532Y-51570139D01*
X74535460Y-51592537D01*
X74494076Y-51633921D01*
X74471678Y-51687993D01*
X74468796Y-51717257D01*
X73765914Y-51717257D01*
X73765914Y-51687993D01*
X73743516Y-51633921D01*
X73702132Y-51592537D01*
X73648060Y-51570139D01*
X73618796Y-51567257D01*
X73333082Y-51567257D01*
X73303818Y-51570139D01*
X73298840Y-51572200D01*
X73293463Y-51572583D01*
X73266000Y-51583093D01*
X72980286Y-51725950D01*
X72967692Y-51733877D01*
X72964033Y-51735393D01*
X72959913Y-51738774D01*
X72955400Y-51741615D01*
X72952803Y-51744608D01*
X72941302Y-51754048D01*
X72911653Y-51783696D01*
X72911653Y-51717257D01*
X72908771Y-51687993D01*
X72886373Y-51633921D01*
X72844989Y-51592537D01*
X72790917Y-51570139D01*
X72732389Y-51570139D01*
X72678317Y-51592537D01*
X72636933Y-51633921D01*
X72614535Y-51687993D01*
X72611653Y-51717257D01*
X71625939Y-51717257D01*
X71625939Y-51288685D01*
X71623057Y-51259421D01*
X71620995Y-51254443D01*
X71620613Y-51249066D01*
X71610103Y-51221603D01*
X71467246Y-50935889D01*
X71459319Y-50923297D01*
X71457803Y-50919635D01*
X71454419Y-50915512D01*
X71451581Y-50911003D01*
X71448588Y-50908407D01*
X71439148Y-50896905D01*
X71296291Y-50754048D01*
X71284789Y-50744608D01*
X71282193Y-50741615D01*
X71277679Y-50738774D01*
X71273560Y-50735393D01*
X71269900Y-50733877D01*
X71257307Y-50725950D01*
X70971592Y-50583093D01*
X70944128Y-50572583D01*
X70938752Y-50572201D01*
X70933774Y-50570139D01*
X70904510Y-50567257D01*
X69761653Y-50567257D01*
X69732389Y-50570139D01*
X69678317Y-50592537D01*
X69636933Y-50633921D01*
X69614535Y-50687993D01*
X69611653Y-50717257D01*
X69278320Y-50717257D01*
X69278320Y-50233924D01*
X94102025Y-50233924D01*
X94102025Y-54200590D01*
G37*
D11*
X34010000Y-55150000D03*
D12*
X34010000Y-52610000D03*
X34010000Y-50070000D03*
X34010000Y-47530000D03*
X34010000Y-44990000D03*
X34010000Y-42450000D03*
D13*
X85325000Y-25370000D03*
D14*
X82785000Y-25370000D03*
X80245000Y-25370000D03*
X77705000Y-25370000D03*
X75165000Y-25370000D03*
X72625000Y-25370000D03*
X70085000Y-25370000D03*
X67545000Y-25370000D03*
X62465000Y-25370000D03*
X59925000Y-25370000D03*
X57385000Y-25370000D03*
X54845000Y-25370000D03*
X52305000Y-25370000D03*
X49765000Y-25370000D03*
X49765000Y-73630000D03*
X52305000Y-73630000D03*
X54845000Y-73630000D03*
X57385000Y-73630000D03*
X59925000Y-73630000D03*
X62465000Y-73630000D03*
X65005000Y-73630000D03*
X67545000Y-73630000D03*
X71605000Y-73630000D03*
X74145000Y-73630000D03*
X76685000Y-73630000D03*
X79225000Y-73630000D03*
X81765000Y-73630000D03*
X84305000Y-73630000D03*
X86845000Y-73630000D03*
X89385000Y-73630000D03*
X91925000Y-73630000D03*
X94465000Y-73630000D03*
D15*
X70085000Y-25370000D02*
X70085000Y-30845000D01*
X71240000Y-32010000D02*
X70080000Y-30850000D01*
X70080000Y-30850000D02*
X70085000Y-30845000D01*
X71240000Y-32040000D02*
X71240000Y-32010000D01*
X71240000Y-32040000D02*
X72605000Y-30675000D01*
X66600000Y-42450000D02*
X34010000Y-42450000D01*
X71240000Y-37810000D02*
X66600000Y-42450000D01*
X71240000Y-32040000D02*
X71240000Y-37810000D01*
X72605000Y-25450000D02*
X72605000Y-30675000D01*
X34010000Y-52610000D02*
X55910000Y-52610000D01*
X71605000Y-68305000D02*
X71605000Y-73630000D01*
X55910000Y-52610000D02*
X71605000Y-68305000D01*
X29510000Y-52170000D02*
X29510000Y-57840000D01*
X29510000Y-57840000D02*
X31260000Y-59590000D01*
X65005000Y-68165000D02*
X65005000Y-73630000D01*
X56430000Y-59590000D02*
X65005000Y-68165000D01*
X31610000Y-50070000D02*
X29510000Y-52170000D01*
X31260000Y-59590000D02*
X56430000Y-59590000D01*
X34010000Y-50070000D02*
X31610000Y-50070000D01*
X34010000Y-55150000D02*
X55220000Y-55150000D01*
X67545000Y-67475000D02*
X67545000Y-73630000D01*
X55220000Y-55150000D02*
X67545000Y-67475000D01*
X34010000Y-44990000D02*
X67800000Y-44990000D01*
X68815000Y-43975000D02*
X77705000Y-35085000D01*
X77705000Y-35085000D02*
X77705000Y-25370000D01*
X67800000Y-44990000D02*
X68815000Y-43975000D01*
X57780000Y-47530000D02*
X74145000Y-63895000D01*
X34010000Y-47530000D02*
X57780000Y-47530000D01*
X74145000Y-63895000D02*
X74145000Y-73630000D01*
G04 #@! TA.AperFunction,Conductor*
G36*
X95802539Y-23370185D02*
G01*
X95848294Y-23422989D01*
X95859500Y-23474500D01*
X95859500Y-72320266D01*
X95839815Y-72387305D01*
X95787011Y-72433060D01*
X95717853Y-72443004D01*
X95654297Y-72413979D01*
X95647819Y-72407947D01*
X95588629Y-72348757D01*
X95588622Y-72348751D01*
X95411782Y-72213058D01*
X95411780Y-72213057D01*
X95411774Y-72213052D01*
X95218726Y-72101595D01*
X95218722Y-72101593D01*
X95012790Y-72016293D01*
X95012783Y-72016291D01*
X95012781Y-72016290D01*
X94797463Y-71958596D01*
X94797457Y-71958595D01*
X94797452Y-71958594D01*
X94576466Y-71929501D01*
X94576463Y-71929500D01*
X94576457Y-71929500D01*
X94353543Y-71929500D01*
X94353537Y-71929500D01*
X94353533Y-71929501D01*
X94132547Y-71958594D01*
X94132540Y-71958595D01*
X94132537Y-71958596D01*
X93917219Y-72016290D01*
X93917209Y-72016293D01*
X93711277Y-72101593D01*
X93711273Y-72101595D01*
X93518226Y-72213052D01*
X93518217Y-72213058D01*
X93341377Y-72348751D01*
X93341370Y-72348757D01*
X93282681Y-72407447D01*
X93221358Y-72440932D01*
X93151666Y-72435948D01*
X93107319Y-72407447D01*
X93048629Y-72348757D01*
X93048622Y-72348751D01*
X92871782Y-72213058D01*
X92871780Y-72213057D01*
X92871774Y-72213052D01*
X92678726Y-72101595D01*
X92678722Y-72101593D01*
X92472790Y-72016293D01*
X92472783Y-72016291D01*
X92472781Y-72016290D01*
X92257463Y-71958596D01*
X92257457Y-71958595D01*
X92257452Y-71958594D01*
X92036466Y-71929501D01*
X92036463Y-71929500D01*
X92036457Y-71929500D01*
X91813543Y-71929500D01*
X91813537Y-71929500D01*
X91813533Y-71929501D01*
X91592547Y-71958594D01*
X91592540Y-71958595D01*
X91592537Y-71958596D01*
X91377219Y-72016290D01*
X91377209Y-72016293D01*
X91171277Y-72101593D01*
X91171273Y-72101595D01*
X90978226Y-72213052D01*
X90978217Y-72213058D01*
X90801377Y-72348751D01*
X90801370Y-72348757D01*
X90742681Y-72407447D01*
X90681358Y-72440932D01*
X90611666Y-72435948D01*
X90567319Y-72407447D01*
X90508629Y-72348757D01*
X90508622Y-72348751D01*
X90331782Y-72213058D01*
X90331780Y-72213057D01*
X90331774Y-72213052D01*
X90138726Y-72101595D01*
X90138722Y-72101593D01*
X89932790Y-72016293D01*
X89932783Y-72016291D01*
X89932781Y-72016290D01*
X89717463Y-71958596D01*
X89717457Y-71958595D01*
X89717452Y-71958594D01*
X89496466Y-71929501D01*
X89496463Y-71929500D01*
X89496457Y-71929500D01*
X89273543Y-71929500D01*
X89273537Y-71929500D01*
X89273533Y-71929501D01*
X89052547Y-71958594D01*
X89052540Y-71958595D01*
X89052537Y-71958596D01*
X88837219Y-72016290D01*
X88837209Y-72016293D01*
X88631277Y-72101593D01*
X88631273Y-72101595D01*
X88438226Y-72213052D01*
X88438217Y-72213058D01*
X88261377Y-72348751D01*
X88261370Y-72348757D01*
X88202681Y-72407447D01*
X88141358Y-72440932D01*
X88071666Y-72435948D01*
X88027319Y-72407447D01*
X87968629Y-72348757D01*
X87968622Y-72348751D01*
X87791782Y-72213058D01*
X87791780Y-72213057D01*
X87791774Y-72213052D01*
X87598726Y-72101595D01*
X87598722Y-72101593D01*
X87392790Y-72016293D01*
X87392783Y-72016291D01*
X87392781Y-72016290D01*
X87177463Y-71958596D01*
X87177457Y-71958595D01*
X87177452Y-71958594D01*
X86956466Y-71929501D01*
X86956463Y-71929500D01*
X86956457Y-71929500D01*
X86733543Y-71929500D01*
X86733537Y-71929500D01*
X86733533Y-71929501D01*
X86512547Y-71958594D01*
X86512540Y-71958595D01*
X86512537Y-71958596D01*
X86297219Y-72016290D01*
X86297209Y-72016293D01*
X86091277Y-72101593D01*
X86091273Y-72101595D01*
X85898226Y-72213052D01*
X85898217Y-72213058D01*
X85721377Y-72348751D01*
X85721370Y-72348757D01*
X85662681Y-72407447D01*
X85601358Y-72440932D01*
X85531666Y-72435948D01*
X85487319Y-72407447D01*
X85428629Y-72348757D01*
X85428622Y-72348751D01*
X85251782Y-72213058D01*
X85251780Y-72213057D01*
X85251774Y-72213052D01*
X85058726Y-72101595D01*
X85058722Y-72101593D01*
X84852790Y-72016293D01*
X84852783Y-72016291D01*
X84852781Y-72016290D01*
X84637463Y-71958596D01*
X84637457Y-71958595D01*
X84637452Y-71958594D01*
X84416466Y-71929501D01*
X84416463Y-71929500D01*
X84416457Y-71929500D01*
X84193543Y-71929500D01*
X84193537Y-71929500D01*
X84193533Y-71929501D01*
X83972547Y-71958594D01*
X83972540Y-71958595D01*
X83972537Y-71958596D01*
X83757219Y-72016290D01*
X83757209Y-72016293D01*
X83551277Y-72101593D01*
X83551273Y-72101595D01*
X83358226Y-72213052D01*
X83358217Y-72213058D01*
X83181377Y-72348751D01*
X83181370Y-72348757D01*
X83122681Y-72407447D01*
X83061358Y-72440932D01*
X82991666Y-72435948D01*
X82947319Y-72407447D01*
X82888629Y-72348757D01*
X82888622Y-72348751D01*
X82711782Y-72213058D01*
X82711780Y-72213057D01*
X82711774Y-72213052D01*
X82518726Y-72101595D01*
X82518722Y-72101593D01*
X82312790Y-72016293D01*
X82312783Y-72016291D01*
X82312781Y-72016290D01*
X82097463Y-71958596D01*
X82097457Y-71958595D01*
X82097452Y-71958594D01*
X81876466Y-71929501D01*
X81876463Y-71929500D01*
X81876457Y-71929500D01*
X81653543Y-71929500D01*
X81653537Y-71929500D01*
X81653533Y-71929501D01*
X81432547Y-71958594D01*
X81432540Y-71958595D01*
X81432537Y-71958596D01*
X81217219Y-72016290D01*
X81217209Y-72016293D01*
X81011277Y-72101593D01*
X81011273Y-72101595D01*
X80818226Y-72213052D01*
X80818217Y-72213058D01*
X80641377Y-72348751D01*
X80641370Y-72348757D01*
X80582681Y-72407447D01*
X80521358Y-72440932D01*
X80451666Y-72435948D01*
X80407319Y-72407447D01*
X80348629Y-72348757D01*
X80348622Y-72348751D01*
X80171782Y-72213058D01*
X80171780Y-72213057D01*
X80171774Y-72213052D01*
X79978726Y-72101595D01*
X79978722Y-72101593D01*
X79772790Y-72016293D01*
X79772783Y-72016291D01*
X79772781Y-72016290D01*
X79557463Y-71958596D01*
X79557457Y-71958595D01*
X79557452Y-71958594D01*
X79336466Y-71929501D01*
X79336463Y-71929500D01*
X79336457Y-71929500D01*
X79113543Y-71929500D01*
X79113537Y-71929500D01*
X79113533Y-71929501D01*
X78892547Y-71958594D01*
X78892540Y-71958595D01*
X78892537Y-71958596D01*
X78677219Y-72016290D01*
X78677209Y-72016293D01*
X78471277Y-72101593D01*
X78471273Y-72101595D01*
X78278226Y-72213052D01*
X78278217Y-72213058D01*
X78101377Y-72348751D01*
X78101370Y-72348757D01*
X78042681Y-72407447D01*
X77981358Y-72440932D01*
X77911666Y-72435948D01*
X77867319Y-72407447D01*
X77808629Y-72348757D01*
X77808622Y-72348751D01*
X77631782Y-72213058D01*
X77631780Y-72213057D01*
X77631774Y-72213052D01*
X77438726Y-72101595D01*
X77438722Y-72101593D01*
X77232790Y-72016293D01*
X77232783Y-72016291D01*
X77232781Y-72016290D01*
X77017463Y-71958596D01*
X77017457Y-71958595D01*
X77017452Y-71958594D01*
X76796466Y-71929501D01*
X76796463Y-71929500D01*
X76796457Y-71929500D01*
X76573543Y-71929500D01*
X76573537Y-71929500D01*
X76573533Y-71929501D01*
X76352547Y-71958594D01*
X76352540Y-71958595D01*
X76352537Y-71958596D01*
X76137219Y-72016290D01*
X76137209Y-72016293D01*
X75931277Y-72101593D01*
X75931273Y-72101595D01*
X75834990Y-72157184D01*
X75738226Y-72213052D01*
X75738222Y-72213054D01*
X75734711Y-72215082D01*
X75734230Y-72214249D01*
X75671690Y-72233820D01*
X75604314Y-72215322D01*
X75557633Y-72163335D01*
X75545500Y-72109839D01*
X75545500Y-64010357D01*
X75545501Y-64010332D01*
X75545501Y-63784779D01*
X75511015Y-63567048D01*
X75444402Y-63362034D01*
X75443339Y-63358266D01*
X75442895Y-63357394D01*
X75342815Y-63160978D01*
X75330750Y-63144372D01*
X75213248Y-62982642D01*
X75213244Y-62982638D01*
X75213242Y-62982635D01*
X75057365Y-62826758D01*
X75057364Y-62826757D01*
X75054253Y-62823646D01*
X75054238Y-62823632D01*
X66105632Y-53875026D01*
X69606653Y-53875026D01*
X93776566Y-53875026D01*
X93776566Y-50559488D01*
X69606653Y-50559488D01*
X69606653Y-53875026D01*
X66105632Y-53875026D01*
X58852582Y-46621976D01*
X58848244Y-46617638D01*
X58848242Y-46617635D01*
X58832784Y-46602177D01*
X58805319Y-46551873D01*
X58799304Y-46540858D01*
X58799304Y-46540855D01*
X58799302Y-46540852D01*
X58802277Y-46499273D01*
X58804288Y-46471166D01*
X58804289Y-46471163D01*
X58804290Y-46471161D01*
X58823761Y-46445153D01*
X58846160Y-46415233D01*
X58846162Y-46415231D01*
X58846165Y-46415229D01*
X58887604Y-46399775D01*
X58911624Y-46390816D01*
X58911627Y-46390815D01*
X58911633Y-46390815D01*
X58920470Y-46390500D01*
X67684643Y-46390500D01*
X67684667Y-46390501D01*
X67689778Y-46390501D01*
X67910221Y-46390501D01*
X67910222Y-46390501D01*
X68127951Y-46356015D01*
X68337606Y-46287895D01*
X68534022Y-46187815D01*
X68614286Y-46129500D01*
X68712365Y-46058242D01*
X68868242Y-45902365D01*
X68868243Y-45902363D01*
X68875303Y-45895303D01*
X68875308Y-45895296D01*
X69883242Y-44887364D01*
X78610296Y-36160308D01*
X78610303Y-36160303D01*
X78617363Y-36153243D01*
X78617365Y-36153242D01*
X78773242Y-35997365D01*
X78902815Y-35819022D01*
X79000688Y-35626935D01*
X79002595Y-35623532D01*
X79071014Y-35412954D01*
X79071013Y-35412954D01*
X79071015Y-35412951D01*
X79105501Y-35195221D01*
X79105501Y-34974778D01*
X79105501Y-34970377D01*
X79105500Y-34970362D01*
X79105500Y-26890160D01*
X79125185Y-26823121D01*
X79177989Y-26777366D01*
X79247147Y-26767422D01*
X79294365Y-26785516D01*
X79294711Y-26784918D01*
X79298222Y-26786945D01*
X79298226Y-26786948D01*
X79491274Y-26898405D01*
X79697219Y-26983710D01*
X79912537Y-27041404D01*
X80133543Y-27070500D01*
X80133550Y-27070500D01*
X80356450Y-27070500D01*
X80356457Y-27070500D01*
X80577463Y-27041404D01*
X80792781Y-26983710D01*
X80998726Y-26898405D01*
X81191774Y-26786948D01*
X81368624Y-26651247D01*
X81427320Y-26592550D01*
X81488641Y-26559067D01*
X81558333Y-26564051D01*
X81602679Y-26592550D01*
X81645500Y-26635371D01*
X81661378Y-26651249D01*
X81808473Y-26764118D01*
X81838226Y-26786948D01*
X82031274Y-26898405D01*
X82237219Y-26983710D01*
X82452537Y-27041404D01*
X82673543Y-27070500D01*
X82673550Y-27070500D01*
X82896450Y-27070500D01*
X82896457Y-27070500D01*
X83117463Y-27041404D01*
X83332781Y-26983710D01*
X83538726Y-26898405D01*
X83731576Y-26787062D01*
X83799473Y-26770590D01*
X83865500Y-26793442D01*
X83881255Y-26806769D01*
X83884740Y-26810254D01*
X83884741Y-26810255D01*
X83884743Y-26810257D01*
X83973007Y-26881732D01*
X84031853Y-26929385D01*
X84115371Y-26971938D01*
X84200512Y-27015320D01*
X84383355Y-27064312D01*
X84461979Y-27070500D01*
X86188020Y-27070499D01*
X86266645Y-27064312D01*
X86449488Y-27015320D01*
X86578008Y-26949835D01*
X86618146Y-26929385D01*
X86618147Y-26929383D01*
X86618149Y-26929383D01*
X86765257Y-26810257D01*
X86884383Y-26663149D01*
X86890447Y-26651249D01*
X86929422Y-26574754D01*
X86970320Y-26494488D01*
X87019312Y-26311645D01*
X87025500Y-26233021D01*
X87025499Y-24506980D01*
X87019312Y-24428355D01*
X86970320Y-24245512D01*
X86926938Y-24160371D01*
X86884385Y-24076853D01*
X86835521Y-24016512D01*
X86765257Y-23929743D01*
X86656401Y-23841593D01*
X86618146Y-23810614D01*
X86492868Y-23746783D01*
X86449488Y-23724680D01*
X86352140Y-23698596D01*
X86266643Y-23675687D01*
X86194736Y-23670028D01*
X86188021Y-23669500D01*
X86188020Y-23669500D01*
X84461989Y-23669500D01*
X84461970Y-23669501D01*
X84383356Y-23675687D01*
X84200512Y-23724680D01*
X84031853Y-23810614D01*
X83884742Y-23929744D01*
X83881249Y-23933237D01*
X83819924Y-23966718D01*
X83750232Y-23961729D01*
X83731587Y-23952944D01*
X83538726Y-23841595D01*
X83538722Y-23841593D01*
X83332790Y-23756293D01*
X83332783Y-23756291D01*
X83332781Y-23756290D01*
X83117463Y-23698596D01*
X83117457Y-23698595D01*
X83117452Y-23698594D01*
X82896466Y-23669501D01*
X82896463Y-23669500D01*
X82896457Y-23669500D01*
X82673543Y-23669500D01*
X82673537Y-23669500D01*
X82673533Y-23669501D01*
X82452547Y-23698594D01*
X82452540Y-23698595D01*
X82452537Y-23698596D01*
X82355190Y-23724680D01*
X82237219Y-23756290D01*
X82237209Y-23756293D01*
X82031277Y-23841593D01*
X82031273Y-23841595D01*
X81838226Y-23953052D01*
X81838217Y-23953058D01*
X81661377Y-24088751D01*
X81661370Y-24088757D01*
X81602681Y-24147447D01*
X81541358Y-24180932D01*
X81471666Y-24175948D01*
X81427319Y-24147447D01*
X81368629Y-24088757D01*
X81368622Y-24088751D01*
X81191782Y-23953058D01*
X81191780Y-23953057D01*
X81191774Y-23953052D01*
X80998726Y-23841595D01*
X80998722Y-23841593D01*
X80792790Y-23756293D01*
X80792783Y-23756291D01*
X80792781Y-23756290D01*
X80577463Y-23698596D01*
X80577457Y-23698595D01*
X80577452Y-23698594D01*
X80356466Y-23669501D01*
X80356463Y-23669500D01*
X80356457Y-23669500D01*
X80133543Y-23669500D01*
X80133537Y-23669500D01*
X80133533Y-23669501D01*
X79912547Y-23698594D01*
X79912540Y-23698595D01*
X79912537Y-23698596D01*
X79815190Y-23724680D01*
X79697219Y-23756290D01*
X79697209Y-23756293D01*
X79491277Y-23841593D01*
X79491273Y-23841595D01*
X79298226Y-23953052D01*
X79298217Y-23953058D01*
X79121377Y-24088751D01*
X79121370Y-24088757D01*
X79062681Y-24147447D01*
X79001358Y-24180932D01*
X78931666Y-24175948D01*
X78887319Y-24147447D01*
X78828629Y-24088757D01*
X78828622Y-24088751D01*
X78651782Y-23953058D01*
X78651780Y-23953057D01*
X78651774Y-23953052D01*
X78458726Y-23841595D01*
X78458722Y-23841593D01*
X78252790Y-23756293D01*
X78252783Y-23756291D01*
X78252781Y-23756290D01*
X78037463Y-23698596D01*
X78037457Y-23698595D01*
X78037452Y-23698594D01*
X77816466Y-23669501D01*
X77816463Y-23669500D01*
X77816457Y-23669500D01*
X77593543Y-23669500D01*
X77593537Y-23669500D01*
X77593533Y-23669501D01*
X77372547Y-23698594D01*
X77372540Y-23698595D01*
X77372537Y-23698596D01*
X77275190Y-23724680D01*
X77157219Y-23756290D01*
X77157209Y-23756293D01*
X76951277Y-23841593D01*
X76951273Y-23841595D01*
X76758226Y-23953052D01*
X76758217Y-23953058D01*
X76581377Y-24088751D01*
X76581370Y-24088757D01*
X76522681Y-24147447D01*
X76461358Y-24180932D01*
X76391666Y-24175948D01*
X76347319Y-24147447D01*
X76288629Y-24088757D01*
X76288622Y-24088751D01*
X76111782Y-23953058D01*
X76111780Y-23953057D01*
X76111774Y-23953052D01*
X75918726Y-23841595D01*
X75918722Y-23841593D01*
X75712790Y-23756293D01*
X75712783Y-23756291D01*
X75712781Y-23756290D01*
X75497463Y-23698596D01*
X75497457Y-23698595D01*
X75497452Y-23698594D01*
X75276466Y-23669501D01*
X75276463Y-23669500D01*
X75276457Y-23669500D01*
X75053543Y-23669500D01*
X75053537Y-23669500D01*
X75053533Y-23669501D01*
X74832547Y-23698594D01*
X74832540Y-23698595D01*
X74832537Y-23698596D01*
X74735190Y-23724680D01*
X74617219Y-23756290D01*
X74617209Y-23756293D01*
X74411277Y-23841593D01*
X74411273Y-23841595D01*
X74218226Y-23953052D01*
X74218217Y-23953058D01*
X74041377Y-24088751D01*
X74041370Y-24088757D01*
X73883757Y-24246370D01*
X73883751Y-24246377D01*
X73748058Y-24423217D01*
X73748042Y-24423241D01*
X73744168Y-24429951D01*
X73693598Y-24478164D01*
X73624991Y-24491383D01*
X73560127Y-24465411D01*
X73549104Y-24455626D01*
X73471895Y-24378417D01*
X73306349Y-24258140D01*
X73124029Y-24165244D01*
X72929413Y-24102009D01*
X72875000Y-24093390D01*
X72875000Y-24936988D01*
X72817993Y-24904075D01*
X72690826Y-24870000D01*
X72559174Y-24870000D01*
X72432007Y-24904075D01*
X72375000Y-24936988D01*
X72375000Y-24093390D01*
X72320586Y-24102009D01*
X72125970Y-24165244D01*
X71943650Y-24258140D01*
X71778105Y-24378417D01*
X71778104Y-24378417D01*
X71633417Y-24523104D01*
X71633417Y-24523105D01*
X71513140Y-24688650D01*
X71465485Y-24782179D01*
X71417510Y-24832975D01*
X71349689Y-24849770D01*
X71283554Y-24827232D01*
X71244515Y-24782179D01*
X71196859Y-24688650D01*
X71076582Y-24523105D01*
X71076582Y-24523104D01*
X70931895Y-24378417D01*
X70766349Y-24258140D01*
X70584029Y-24165244D01*
X70389413Y-24102009D01*
X70335000Y-24093390D01*
X70335000Y-24936988D01*
X70277993Y-24904075D01*
X70150826Y-24870000D01*
X70019174Y-24870000D01*
X69892007Y-24904075D01*
X69835000Y-24936988D01*
X69835000Y-24093390D01*
X69780586Y-24102009D01*
X69585970Y-24165244D01*
X69403650Y-24258140D01*
X69238108Y-24378414D01*
X69160895Y-24455627D01*
X69099571Y-24489111D01*
X69029880Y-24484126D01*
X68973946Y-24442255D01*
X68965831Y-24429951D01*
X68961948Y-24423226D01*
X68826247Y-24246376D01*
X68826242Y-24246370D01*
X68668629Y-24088757D01*
X68668622Y-24088751D01*
X68491782Y-23953058D01*
X68491780Y-23953057D01*
X68491774Y-23953052D01*
X68298726Y-23841595D01*
X68298722Y-23841593D01*
X68092790Y-23756293D01*
X68092783Y-23756291D01*
X68092781Y-23756290D01*
X67877463Y-23698596D01*
X67877457Y-23698595D01*
X67877452Y-23698594D01*
X67656466Y-23669501D01*
X67656463Y-23669500D01*
X67656457Y-23669500D01*
X67433543Y-23669500D01*
X67433537Y-23669500D01*
X67433533Y-23669501D01*
X67212547Y-23698594D01*
X67212540Y-23698595D01*
X67212537Y-23698596D01*
X67115190Y-23724680D01*
X66997219Y-23756290D01*
X66997209Y-23756293D01*
X66791277Y-23841593D01*
X66791273Y-23841595D01*
X66598226Y-23953052D01*
X66598217Y-23953058D01*
X66421377Y-24088751D01*
X66421370Y-24088757D01*
X66263757Y-24246370D01*
X66263751Y-24246377D01*
X66128058Y-24423217D01*
X66128052Y-24423226D01*
X66016595Y-24616273D01*
X66016593Y-24616277D01*
X65931293Y-24822209D01*
X65931290Y-24822219D01*
X65873597Y-25037534D01*
X65873594Y-25037547D01*
X65844501Y-25258533D01*
X65844500Y-25258549D01*
X65844500Y-25481450D01*
X65844501Y-25481466D01*
X65873594Y-25702452D01*
X65873595Y-25702457D01*
X65873596Y-25702463D01*
X65931290Y-25917780D01*
X65931293Y-25917790D01*
X66016593Y-26123722D01*
X66016595Y-26123726D01*
X66128052Y-26316774D01*
X66128056Y-26316779D01*
X66128058Y-26316782D01*
X66263751Y-26493622D01*
X66263757Y-26493629D01*
X66421370Y-26651242D01*
X66421377Y-26651248D01*
X66547294Y-26747867D01*
X66598226Y-26786948D01*
X66791274Y-26898405D01*
X66997219Y-26983710D01*
X67212537Y-27041404D01*
X67433543Y-27070500D01*
X67433550Y-27070500D01*
X67656450Y-27070500D01*
X67656457Y-27070500D01*
X67877463Y-27041404D01*
X68092781Y-26983710D01*
X68298726Y-26898405D01*
X68491774Y-26786948D01*
X68668624Y-26651247D01*
X68826247Y-26493624D01*
X68961948Y-26316774D01*
X68965824Y-26310059D01*
X69016384Y-26261843D01*
X69084990Y-26248614D01*
X69149857Y-26274577D01*
X69160895Y-26284373D01*
X69238104Y-26361582D01*
X69403650Y-26481859D01*
X69585968Y-26574754D01*
X69780578Y-26637988D01*
X69835000Y-26646607D01*
X69835000Y-25803012D01*
X69892007Y-25835925D01*
X70019174Y-25870000D01*
X70150826Y-25870000D01*
X70277993Y-25835925D01*
X70335000Y-25803012D01*
X70335000Y-26646606D01*
X70389421Y-26637988D01*
X70584031Y-26574754D01*
X70766349Y-26481859D01*
X70931894Y-26361582D01*
X70931895Y-26361582D01*
X71076582Y-26216895D01*
X71076582Y-26216894D01*
X71196859Y-26051349D01*
X71244515Y-25957820D01*
X71292489Y-25907024D01*
X71360310Y-25890229D01*
X71426445Y-25912766D01*
X71465485Y-25957820D01*
X71513140Y-26051349D01*
X71633417Y-26216894D01*
X71633417Y-26216895D01*
X71778104Y-26361582D01*
X71943650Y-26481859D01*
X72125968Y-26574754D01*
X72320578Y-26637988D01*
X72375000Y-26646607D01*
X72375000Y-25803012D01*
X72432007Y-25835925D01*
X72559174Y-25870000D01*
X72690826Y-25870000D01*
X72817993Y-25835925D01*
X72875000Y-25803012D01*
X72875000Y-26646606D01*
X72929421Y-26637988D01*
X73124031Y-26574754D01*
X73306349Y-26481859D01*
X73471891Y-26361585D01*
X73549103Y-26284373D01*
X73610426Y-26250888D01*
X73680118Y-26255872D01*
X73736052Y-26297743D01*
X73744171Y-26310052D01*
X73748052Y-26316774D01*
X73748056Y-26316779D01*
X73748058Y-26316782D01*
X73883751Y-26493622D01*
X73883757Y-26493629D01*
X74041370Y-26651242D01*
X74041377Y-26651248D01*
X74167294Y-26747867D01*
X74218226Y-26786948D01*
X74411274Y-26898405D01*
X74617219Y-26983710D01*
X74832537Y-27041404D01*
X75053543Y-27070500D01*
X75053550Y-27070500D01*
X75276450Y-27070500D01*
X75276457Y-27070500D01*
X75497463Y-27041404D01*
X75712781Y-26983710D01*
X75918726Y-26898405D01*
X76111774Y-26786948D01*
X76111777Y-26786945D01*
X76115289Y-26784918D01*
X76115772Y-26785755D01*
X76178283Y-26766180D01*
X76245664Y-26784663D01*
X76292355Y-26836640D01*
X76304500Y-26890160D01*
X76304500Y-34453532D01*
X76284815Y-34520571D01*
X76268181Y-34541213D01*
X67256213Y-43553181D01*
X67194890Y-43586666D01*
X67168532Y-43589500D01*
X35102435Y-43589500D01*
X35035396Y-43569815D01*
X35026960Y-43563884D01*
X34984612Y-43531389D01*
X34973958Y-43525238D01*
X34785891Y-43416657D01*
X34785876Y-43416650D01*
X34573887Y-43328842D01*
X34573883Y-43328841D01*
X34553250Y-43323312D01*
X34497665Y-43291219D01*
X34139409Y-42932962D01*
X34202993Y-42915925D01*
X34317007Y-42850099D01*
X34410099Y-42757007D01*
X34475925Y-42642993D01*
X34492962Y-42579408D01*
X35125270Y-43211717D01*
X35125270Y-43211716D01*
X35164622Y-43157554D01*
X35261095Y-42968217D01*
X35326757Y-42766130D01*
X35326757Y-42766127D01*
X35360000Y-42556246D01*
X35360000Y-42343753D01*
X35326757Y-42133872D01*
X35326757Y-42133869D01*
X35261095Y-41931782D01*
X35164624Y-41742449D01*
X35125270Y-41688282D01*
X35125269Y-41688282D01*
X34492962Y-42320590D01*
X34475925Y-42257007D01*
X34410099Y-42142993D01*
X34317007Y-42049901D01*
X34202993Y-41984075D01*
X34139409Y-41967037D01*
X34771716Y-41334728D01*
X34717550Y-41295375D01*
X34528217Y-41198904D01*
X34326129Y-41133242D01*
X34116246Y-41100000D01*
X33903754Y-41100000D01*
X33693872Y-41133242D01*
X33693869Y-41133242D01*
X33491782Y-41198904D01*
X33302439Y-41295380D01*
X33248282Y-41334727D01*
X33248282Y-41334728D01*
X33880591Y-41967037D01*
X33817007Y-41984075D01*
X33702993Y-42049901D01*
X33609901Y-42142993D01*
X33544075Y-42257007D01*
X33527037Y-42320591D01*
X32894728Y-41688282D01*
X32894727Y-41688282D01*
X32855380Y-41742439D01*
X32758904Y-41931782D01*
X32693242Y-42133869D01*
X32693242Y-42133872D01*
X32660000Y-42343753D01*
X32660000Y-42556246D01*
X32693242Y-42766127D01*
X32693242Y-42766130D01*
X32758904Y-42968217D01*
X32855375Y-43157550D01*
X32894728Y-43211716D01*
X33527037Y-42579408D01*
X33544075Y-42642993D01*
X33609901Y-42757007D01*
X33702993Y-42850099D01*
X33817007Y-42915925D01*
X33880590Y-42932962D01*
X33522333Y-43291219D01*
X33466749Y-43323312D01*
X33446114Y-43328841D01*
X33234118Y-43416653D01*
X33234109Y-43416657D01*
X33035382Y-43531392D01*
X32853338Y-43671081D01*
X32691081Y-43833338D01*
X32551392Y-44015382D01*
X32436657Y-44214109D01*
X32436650Y-44214123D01*
X32348842Y-44426112D01*
X32289453Y-44647759D01*
X32289451Y-44647770D01*
X32259500Y-44875258D01*
X32259500Y-45104741D01*
X32284446Y-45294215D01*
X32289452Y-45332238D01*
X32289453Y-45332240D01*
X32348842Y-45553887D01*
X32436650Y-45765876D01*
X32436656Y-45765888D01*
X32515448Y-45902361D01*
X32551392Y-45964617D01*
X32691081Y-46146661D01*
X32691089Y-46146670D01*
X32716738Y-46172319D01*
X32750223Y-46233642D01*
X32745239Y-46303334D01*
X32716738Y-46347681D01*
X32691081Y-46373338D01*
X32551392Y-46555382D01*
X32436657Y-46754109D01*
X32436650Y-46754123D01*
X32348842Y-46966112D01*
X32289453Y-47187759D01*
X32289451Y-47187770D01*
X32259500Y-47415258D01*
X32259500Y-47644741D01*
X32284446Y-47834215D01*
X32289452Y-47872238D01*
X32289453Y-47872240D01*
X32348842Y-48093887D01*
X32436650Y-48305876D01*
X32436656Y-48305888D01*
X32539201Y-48483502D01*
X32555674Y-48551400D01*
X32532822Y-48617427D01*
X32477900Y-48660617D01*
X32431814Y-48669500D01*
X31499773Y-48669500D01*
X31282047Y-48703984D01*
X31137100Y-48751081D01*
X31137099Y-48751081D01*
X31072399Y-48772102D01*
X31072393Y-48772104D01*
X30875974Y-48872187D01*
X30697641Y-49001752D01*
X30697636Y-49001756D01*
X28441754Y-51257638D01*
X28372112Y-51353494D01*
X28361650Y-51367895D01*
X28336917Y-51401936D01*
X28312185Y-51435977D01*
X28212104Y-51632393D01*
X28212103Y-51632396D01*
X28143985Y-51842047D01*
X28143985Y-51842049D01*
X28111664Y-52046113D01*
X28109499Y-52059779D01*
X28109499Y-52285332D01*
X28109500Y-52285357D01*
X28109500Y-57725362D01*
X28109499Y-57725377D01*
X28109499Y-57950220D01*
X28143985Y-58167952D01*
X28212103Y-58377603D01*
X28212104Y-58377606D01*
X28312187Y-58574025D01*
X28441751Y-58752357D01*
X28441755Y-58752361D01*
X28441758Y-58752365D01*
X28597635Y-58908242D01*
X28601965Y-58912572D01*
X28601976Y-58912582D01*
X30188632Y-60499238D01*
X30188646Y-60499253D01*
X30191757Y-60502364D01*
X30191758Y-60502365D01*
X30347635Y-60658242D01*
X30347638Y-60658244D01*
X30347642Y-60658248D01*
X30509372Y-60775750D01*
X30525978Y-60787815D01*
X30654375Y-60853237D01*
X30722393Y-60887895D01*
X30722396Y-60887896D01*
X30827221Y-60921955D01*
X30932049Y-60956015D01*
X31149779Y-60990501D01*
X31149780Y-60990501D01*
X31375333Y-60990501D01*
X31375357Y-60990500D01*
X55798532Y-60990500D01*
X55865571Y-61010185D01*
X55886213Y-61026819D01*
X63568181Y-68708787D01*
X63601666Y-68770110D01*
X63604500Y-68796468D01*
X63604500Y-72109839D01*
X63584815Y-72176878D01*
X63532011Y-72222633D01*
X63462853Y-72232577D01*
X63415632Y-72214487D01*
X63415289Y-72215082D01*
X63411777Y-72213054D01*
X63411774Y-72213052D01*
X63218726Y-72101595D01*
X63218722Y-72101593D01*
X63012790Y-72016293D01*
X63012783Y-72016291D01*
X63012781Y-72016290D01*
X62797463Y-71958596D01*
X62797457Y-71958595D01*
X62797452Y-71958594D01*
X62576466Y-71929501D01*
X62576463Y-71929500D01*
X62576457Y-71929500D01*
X62353543Y-71929500D01*
X62353537Y-71929500D01*
X62353533Y-71929501D01*
X62132547Y-71958594D01*
X62132540Y-71958595D01*
X62132537Y-71958596D01*
X61917219Y-72016290D01*
X61917209Y-72016293D01*
X61711277Y-72101593D01*
X61711273Y-72101595D01*
X61518226Y-72213052D01*
X61518217Y-72213058D01*
X61341377Y-72348751D01*
X61341370Y-72348757D01*
X61282681Y-72407447D01*
X61221358Y-72440932D01*
X61151666Y-72435948D01*
X61107319Y-72407447D01*
X61048629Y-72348757D01*
X61048622Y-72348751D01*
X60871782Y-72213058D01*
X60871780Y-72213057D01*
X60871774Y-72213052D01*
X60678726Y-72101595D01*
X60678722Y-72101593D01*
X60472790Y-72016293D01*
X60472783Y-72016291D01*
X60472781Y-72016290D01*
X60257463Y-71958596D01*
X60257457Y-71958595D01*
X60257452Y-71958594D01*
X60036466Y-71929501D01*
X60036463Y-71929500D01*
X60036457Y-71929500D01*
X59813543Y-71929500D01*
X59813537Y-71929500D01*
X59813533Y-71929501D01*
X59592547Y-71958594D01*
X59592540Y-71958595D01*
X59592537Y-71958596D01*
X59377219Y-72016290D01*
X59377209Y-72016293D01*
X59171277Y-72101593D01*
X59171273Y-72101595D01*
X58978226Y-72213052D01*
X58978217Y-72213058D01*
X58801377Y-72348751D01*
X58801370Y-72348757D01*
X58742681Y-72407447D01*
X58681358Y-72440932D01*
X58611666Y-72435948D01*
X58567319Y-72407447D01*
X58508629Y-72348757D01*
X58508622Y-72348751D01*
X58331782Y-72213058D01*
X58331780Y-72213057D01*
X58331774Y-72213052D01*
X58138726Y-72101595D01*
X58138722Y-72101593D01*
X57932790Y-72016293D01*
X57932783Y-72016291D01*
X57932781Y-72016290D01*
X57717463Y-71958596D01*
X57717457Y-71958595D01*
X57717452Y-71958594D01*
X57496466Y-71929501D01*
X57496463Y-71929500D01*
X57496457Y-71929500D01*
X57273543Y-71929500D01*
X57273537Y-71929500D01*
X57273533Y-71929501D01*
X57052547Y-71958594D01*
X57052540Y-71958595D01*
X57052537Y-71958596D01*
X56837219Y-72016290D01*
X56837209Y-72016293D01*
X56631277Y-72101593D01*
X56631273Y-72101595D01*
X56438226Y-72213052D01*
X56438217Y-72213058D01*
X56261377Y-72348751D01*
X56261370Y-72348757D01*
X56202681Y-72407447D01*
X56141358Y-72440932D01*
X56071666Y-72435948D01*
X56027319Y-72407447D01*
X55968629Y-72348757D01*
X55968622Y-72348751D01*
X55791782Y-72213058D01*
X55791780Y-72213057D01*
X55791774Y-72213052D01*
X55598726Y-72101595D01*
X55598722Y-72101593D01*
X55392790Y-72016293D01*
X55392783Y-72016291D01*
X55392781Y-72016290D01*
X55177463Y-71958596D01*
X55177457Y-71958595D01*
X55177452Y-71958594D01*
X54956466Y-71929501D01*
X54956463Y-71929500D01*
X54956457Y-71929500D01*
X54733543Y-71929500D01*
X54733537Y-71929500D01*
X54733533Y-71929501D01*
X54512547Y-71958594D01*
X54512540Y-71958595D01*
X54512537Y-71958596D01*
X54297219Y-72016290D01*
X54297209Y-72016293D01*
X54091277Y-72101593D01*
X54091273Y-72101595D01*
X53898226Y-72213052D01*
X53898217Y-72213058D01*
X53721377Y-72348751D01*
X53721370Y-72348757D01*
X53662681Y-72407447D01*
X53601358Y-72440932D01*
X53531666Y-72435948D01*
X53487319Y-72407447D01*
X53428629Y-72348757D01*
X53428622Y-72348751D01*
X53251782Y-72213058D01*
X53251780Y-72213057D01*
X53251774Y-72213052D01*
X53058726Y-72101595D01*
X53058722Y-72101593D01*
X52852790Y-72016293D01*
X52852783Y-72016291D01*
X52852781Y-72016290D01*
X52637463Y-71958596D01*
X52637457Y-71958595D01*
X52637452Y-71958594D01*
X52416466Y-71929501D01*
X52416463Y-71929500D01*
X52416457Y-71929500D01*
X52193543Y-71929500D01*
X52193537Y-71929500D01*
X52193533Y-71929501D01*
X51972547Y-71958594D01*
X51972540Y-71958595D01*
X51972537Y-71958596D01*
X51757219Y-72016290D01*
X51757209Y-72016293D01*
X51551277Y-72101593D01*
X51551273Y-72101595D01*
X51358226Y-72213052D01*
X51358217Y-72213058D01*
X51181377Y-72348751D01*
X51181370Y-72348757D01*
X51122681Y-72407447D01*
X51061358Y-72440932D01*
X50991666Y-72435948D01*
X50947319Y-72407447D01*
X50888629Y-72348757D01*
X50888622Y-72348751D01*
X50711782Y-72213058D01*
X50711780Y-72213057D01*
X50711774Y-72213052D01*
X50518726Y-72101595D01*
X50518722Y-72101593D01*
X50312790Y-72016293D01*
X50312783Y-72016291D01*
X50312781Y-72016290D01*
X50097463Y-71958596D01*
X50097457Y-71958595D01*
X50097452Y-71958594D01*
X49876466Y-71929501D01*
X49876463Y-71929500D01*
X49876457Y-71929500D01*
X49653543Y-71929500D01*
X49653537Y-71929500D01*
X49653533Y-71929501D01*
X49432547Y-71958594D01*
X49432540Y-71958595D01*
X49432537Y-71958596D01*
X49217219Y-72016290D01*
X49217209Y-72016293D01*
X49011277Y-72101593D01*
X49011273Y-72101595D01*
X48818226Y-72213052D01*
X48818217Y-72213058D01*
X48641377Y-72348751D01*
X48641370Y-72348757D01*
X48483757Y-72506370D01*
X48483751Y-72506377D01*
X48348058Y-72683217D01*
X48348052Y-72683226D01*
X48236595Y-72876273D01*
X48236593Y-72876277D01*
X48151293Y-73082209D01*
X48151290Y-73082219D01*
X48093597Y-73297534D01*
X48093594Y-73297547D01*
X48064501Y-73518533D01*
X48064500Y-73518549D01*
X48064500Y-73741450D01*
X48064501Y-73741466D01*
X48093594Y-73962452D01*
X48093595Y-73962457D01*
X48093596Y-73962463D01*
X48093597Y-73962465D01*
X48151290Y-74177780D01*
X48151293Y-74177790D01*
X48236593Y-74383722D01*
X48236595Y-74383726D01*
X48348052Y-74576774D01*
X48348057Y-74576780D01*
X48348058Y-74576782D01*
X48483751Y-74753622D01*
X48483757Y-74753629D01*
X48641370Y-74911242D01*
X48641377Y-74911248D01*
X48666973Y-74930888D01*
X48818226Y-75046948D01*
X49011274Y-75158405D01*
X49217219Y-75243710D01*
X49432537Y-75301404D01*
X49653543Y-75330500D01*
X49653550Y-75330500D01*
X49876450Y-75330500D01*
X49876457Y-75330500D01*
X50097463Y-75301404D01*
X50312781Y-75243710D01*
X50518726Y-75158405D01*
X50711774Y-75046948D01*
X50888624Y-74911247D01*
X50947320Y-74852550D01*
X51008641Y-74819067D01*
X51078333Y-74824051D01*
X51122679Y-74852550D01*
X51181371Y-74911242D01*
X51181378Y-74911249D01*
X51218501Y-74939734D01*
X51358226Y-75046948D01*
X51551274Y-75158405D01*
X51757219Y-75243710D01*
X51972537Y-75301404D01*
X52193543Y-75330500D01*
X52193550Y-75330500D01*
X52416450Y-75330500D01*
X52416457Y-75330500D01*
X52637463Y-75301404D01*
X52852781Y-75243710D01*
X53058726Y-75158405D01*
X53251774Y-75046948D01*
X53428624Y-74911247D01*
X53487320Y-74852550D01*
X53548641Y-74819067D01*
X53618333Y-74824051D01*
X53662679Y-74852550D01*
X53721371Y-74911242D01*
X53721378Y-74911249D01*
X53758501Y-74939734D01*
X53898226Y-75046948D01*
X54091274Y-75158405D01*
X54297219Y-75243710D01*
X54512537Y-75301404D01*
X54733543Y-75330500D01*
X54733550Y-75330500D01*
X54956450Y-75330500D01*
X54956457Y-75330500D01*
X55177463Y-75301404D01*
X55392781Y-75243710D01*
X55598726Y-75158405D01*
X55791774Y-75046948D01*
X55968624Y-74911247D01*
X56027320Y-74852550D01*
X56088641Y-74819067D01*
X56158333Y-74824051D01*
X56202679Y-74852550D01*
X56261371Y-74911242D01*
X56261378Y-74911249D01*
X56298501Y-74939734D01*
X56438226Y-75046948D01*
X56631274Y-75158405D01*
X56837219Y-75243710D01*
X57052537Y-75301404D01*
X57273543Y-75330500D01*
X57273550Y-75330500D01*
X57496450Y-75330500D01*
X57496457Y-75330500D01*
X57717463Y-75301404D01*
X57932781Y-75243710D01*
X58138726Y-75158405D01*
X58331774Y-75046948D01*
X58508624Y-74911247D01*
X58567320Y-74852550D01*
X58628641Y-74819067D01*
X58698333Y-74824051D01*
X58742679Y-74852550D01*
X58801371Y-74911242D01*
X58801378Y-74911249D01*
X58838501Y-74939734D01*
X58978226Y-75046948D01*
X59171274Y-75158405D01*
X59377219Y-75243710D01*
X59592537Y-75301404D01*
X59813543Y-75330500D01*
X59813550Y-75330500D01*
X60036450Y-75330500D01*
X60036457Y-75330500D01*
X60257463Y-75301404D01*
X60472781Y-75243710D01*
X60678726Y-75158405D01*
X60871774Y-75046948D01*
X61048624Y-74911247D01*
X61107320Y-74852550D01*
X61168641Y-74819067D01*
X61238333Y-74824051D01*
X61282679Y-74852550D01*
X61341371Y-74911242D01*
X61341378Y-74911249D01*
X61378501Y-74939734D01*
X61518226Y-75046948D01*
X61711274Y-75158405D01*
X61917219Y-75243710D01*
X62132537Y-75301404D01*
X62353543Y-75330500D01*
X62353550Y-75330500D01*
X62576450Y-75330500D01*
X62576457Y-75330500D01*
X62797463Y-75301404D01*
X63012781Y-75243710D01*
X63218726Y-75158405D01*
X63411774Y-75046948D01*
X63588624Y-74911247D01*
X63647320Y-74852550D01*
X63708641Y-74819067D01*
X63778333Y-74824051D01*
X63822679Y-74852550D01*
X63881371Y-74911242D01*
X63881378Y-74911249D01*
X63918501Y-74939734D01*
X64058226Y-75046948D01*
X64251274Y-75158405D01*
X64457219Y-75243710D01*
X64672537Y-75301404D01*
X64893543Y-75330500D01*
X64893550Y-75330500D01*
X65116450Y-75330500D01*
X65116457Y-75330500D01*
X65337463Y-75301404D01*
X65552781Y-75243710D01*
X65758726Y-75158405D01*
X65951774Y-75046948D01*
X66128624Y-74911247D01*
X66187320Y-74852550D01*
X66248641Y-74819067D01*
X66318333Y-74824051D01*
X66362679Y-74852550D01*
X66421371Y-74911242D01*
X66421378Y-74911249D01*
X66458501Y-74939734D01*
X66598226Y-75046948D01*
X66791274Y-75158405D01*
X66997219Y-75243710D01*
X67212537Y-75301404D01*
X67433543Y-75330500D01*
X67433550Y-75330500D01*
X67656450Y-75330500D01*
X67656457Y-75330500D01*
X67877463Y-75301404D01*
X68092781Y-75243710D01*
X68298726Y-75158405D01*
X68491774Y-75046948D01*
X68668624Y-74911247D01*
X68826247Y-74753624D01*
X68961948Y-74576774D01*
X69073405Y-74383726D01*
X69158710Y-74177781D01*
X69216404Y-73962463D01*
X69245500Y-73741457D01*
X69245500Y-73518543D01*
X69216404Y-73297537D01*
X69158710Y-73082219D01*
X69073405Y-72876274D01*
X69073403Y-72876271D01*
X69073401Y-72876266D01*
X68962113Y-72683511D01*
X68945500Y-72621511D01*
X68945500Y-67925468D01*
X68965185Y-67858429D01*
X69017989Y-67812674D01*
X69087147Y-67802730D01*
X69150703Y-67831755D01*
X69157181Y-67837787D01*
X70168181Y-68848787D01*
X70201666Y-68910110D01*
X70204500Y-68936468D01*
X70204500Y-72621511D01*
X70187887Y-72683511D01*
X70076598Y-72876266D01*
X70076593Y-72876277D01*
X69991293Y-73082209D01*
X69991290Y-73082219D01*
X69933597Y-73297534D01*
X69933594Y-73297547D01*
X69904501Y-73518533D01*
X69904500Y-73518549D01*
X69904500Y-73741450D01*
X69904501Y-73741466D01*
X69933594Y-73962452D01*
X69933595Y-73962457D01*
X69933596Y-73962463D01*
X69933597Y-73962465D01*
X69991290Y-74177780D01*
X69991293Y-74177790D01*
X70076593Y-74383722D01*
X70076595Y-74383726D01*
X70188052Y-74576774D01*
X70188057Y-74576780D01*
X70188058Y-74576782D01*
X70323751Y-74753622D01*
X70323757Y-74753629D01*
X70481370Y-74911242D01*
X70481377Y-74911248D01*
X70506973Y-74930888D01*
X70658226Y-75046948D01*
X70851274Y-75158405D01*
X71057219Y-75243710D01*
X71272537Y-75301404D01*
X71493543Y-75330500D01*
X71493550Y-75330500D01*
X71716450Y-75330500D01*
X71716457Y-75330500D01*
X71937463Y-75301404D01*
X72152781Y-75243710D01*
X72358726Y-75158405D01*
X72551774Y-75046948D01*
X72728624Y-74911247D01*
X72787320Y-74852550D01*
X72848641Y-74819067D01*
X72918333Y-74824051D01*
X72962679Y-74852550D01*
X73021371Y-74911242D01*
X73021378Y-74911249D01*
X73058501Y-74939734D01*
X73198226Y-75046948D01*
X73391274Y-75158405D01*
X73597219Y-75243710D01*
X73812537Y-75301404D01*
X74033543Y-75330500D01*
X74033550Y-75330500D01*
X74256450Y-75330500D01*
X74256457Y-75330500D01*
X74477463Y-75301404D01*
X74692781Y-75243710D01*
X74898726Y-75158405D01*
X75091774Y-75046948D01*
X75268624Y-74911247D01*
X75327320Y-74852550D01*
X75388641Y-74819067D01*
X75458333Y-74824051D01*
X75502679Y-74852550D01*
X75561371Y-74911242D01*
X75561378Y-74911249D01*
X75598501Y-74939734D01*
X75738226Y-75046948D01*
X75931274Y-75158405D01*
X76137219Y-75243710D01*
X76352537Y-75301404D01*
X76573543Y-75330500D01*
X76573550Y-75330500D01*
X76796450Y-75330500D01*
X76796457Y-75330500D01*
X77017463Y-75301404D01*
X77232781Y-75243710D01*
X77438726Y-75158405D01*
X77631774Y-75046948D01*
X77808624Y-74911247D01*
X77867320Y-74852550D01*
X77928641Y-74819067D01*
X77998333Y-74824051D01*
X78042679Y-74852550D01*
X78101371Y-74911242D01*
X78101378Y-74911249D01*
X78138501Y-74939734D01*
X78278226Y-75046948D01*
X78471274Y-75158405D01*
X78677219Y-75243710D01*
X78892537Y-75301404D01*
X79113543Y-75330500D01*
X79113550Y-75330500D01*
X79336450Y-75330500D01*
X79336457Y-75330500D01*
X79557463Y-75301404D01*
X79772781Y-75243710D01*
X79978726Y-75158405D01*
X80171774Y-75046948D01*
X80348624Y-74911247D01*
X80407320Y-74852550D01*
X80468641Y-74819067D01*
X80538333Y-74824051D01*
X80582679Y-74852550D01*
X80641371Y-74911242D01*
X80641378Y-74911249D01*
X80678501Y-74939734D01*
X80818226Y-75046948D01*
X81011274Y-75158405D01*
X81217219Y-75243710D01*
X81432537Y-75301404D01*
X81653543Y-75330500D01*
X81653550Y-75330500D01*
X81876450Y-75330500D01*
X81876457Y-75330500D01*
X82097463Y-75301404D01*
X82312781Y-75243710D01*
X82518726Y-75158405D01*
X82711774Y-75046948D01*
X82888624Y-74911247D01*
X82947320Y-74852550D01*
X83008641Y-74819067D01*
X83078333Y-74824051D01*
X83122679Y-74852550D01*
X83181371Y-74911242D01*
X83181378Y-74911249D01*
X83218501Y-74939734D01*
X83358226Y-75046948D01*
X83551274Y-75158405D01*
X83757219Y-75243710D01*
X83972537Y-75301404D01*
X84193543Y-75330500D01*
X84193550Y-75330500D01*
X84416450Y-75330500D01*
X84416457Y-75330500D01*
X84637463Y-75301404D01*
X84852781Y-75243710D01*
X85058726Y-75158405D01*
X85251774Y-75046948D01*
X85428624Y-74911247D01*
X85487320Y-74852550D01*
X85548641Y-74819067D01*
X85618333Y-74824051D01*
X85662679Y-74852550D01*
X85721371Y-74911242D01*
X85721378Y-74911249D01*
X85758501Y-74939734D01*
X85898226Y-75046948D01*
X86091274Y-75158405D01*
X86297219Y-75243710D01*
X86512537Y-75301404D01*
X86733543Y-75330500D01*
X86733550Y-75330500D01*
X86956450Y-75330500D01*
X86956457Y-75330500D01*
X87177463Y-75301404D01*
X87392781Y-75243710D01*
X87598726Y-75158405D01*
X87791774Y-75046948D01*
X87968624Y-74911247D01*
X88027320Y-74852550D01*
X88088641Y-74819067D01*
X88158333Y-74824051D01*
X88202679Y-74852550D01*
X88261371Y-74911242D01*
X88261378Y-74911249D01*
X88298501Y-74939734D01*
X88438226Y-75046948D01*
X88631274Y-75158405D01*
X88837219Y-75243710D01*
X89052537Y-75301404D01*
X89273543Y-75330500D01*
X89273550Y-75330500D01*
X89496450Y-75330500D01*
X89496457Y-75330500D01*
X89717463Y-75301404D01*
X89932781Y-75243710D01*
X90138726Y-75158405D01*
X90331774Y-75046948D01*
X90508624Y-74911247D01*
X90567320Y-74852550D01*
X90628641Y-74819067D01*
X90698333Y-74824051D01*
X90742679Y-74852550D01*
X90801371Y-74911242D01*
X90801378Y-74911249D01*
X90838501Y-74939734D01*
X90978226Y-75046948D01*
X91171274Y-75158405D01*
X91377219Y-75243710D01*
X91592537Y-75301404D01*
X91813543Y-75330500D01*
X91813550Y-75330500D01*
X92036450Y-75330500D01*
X92036457Y-75330500D01*
X92257463Y-75301404D01*
X92472781Y-75243710D01*
X92678726Y-75158405D01*
X92871774Y-75046948D01*
X93048624Y-74911247D01*
X93107320Y-74852550D01*
X93168641Y-74819067D01*
X93238333Y-74824051D01*
X93282679Y-74852550D01*
X93341371Y-74911242D01*
X93341378Y-74911249D01*
X93378501Y-74939734D01*
X93518226Y-75046948D01*
X93711274Y-75158405D01*
X93917219Y-75243710D01*
X94132537Y-75301404D01*
X94353543Y-75330500D01*
X94353550Y-75330500D01*
X94576450Y-75330500D01*
X94576457Y-75330500D01*
X94797463Y-75301404D01*
X95012781Y-75243710D01*
X95218726Y-75158405D01*
X95411774Y-75046948D01*
X95588624Y-74911247D01*
X95588629Y-74911242D01*
X95647819Y-74852053D01*
X95709142Y-74818568D01*
X95778834Y-74823552D01*
X95834767Y-74865424D01*
X95859184Y-74930888D01*
X95859500Y-74939734D01*
X95859500Y-75565500D01*
X95839815Y-75632539D01*
X95787011Y-75678294D01*
X95735500Y-75689500D01*
X27294500Y-75689500D01*
X27227461Y-75669815D01*
X27181706Y-75617011D01*
X27170500Y-75565500D01*
X27170500Y-25258549D01*
X48064500Y-25258549D01*
X48064500Y-25481450D01*
X48064501Y-25481466D01*
X48093594Y-25702452D01*
X48093595Y-25702457D01*
X48093596Y-25702463D01*
X48151290Y-25917780D01*
X48151293Y-25917790D01*
X48236593Y-26123722D01*
X48236595Y-26123726D01*
X48348052Y-26316774D01*
X48348056Y-26316779D01*
X48348058Y-26316782D01*
X48483751Y-26493622D01*
X48483757Y-26493629D01*
X48641370Y-26651242D01*
X48641377Y-26651248D01*
X48767294Y-26747867D01*
X48818226Y-26786948D01*
X49011274Y-26898405D01*
X49217219Y-26983710D01*
X49432537Y-27041404D01*
X49653543Y-27070500D01*
X49653550Y-27070500D01*
X49876450Y-27070500D01*
X49876457Y-27070500D01*
X50097463Y-27041404D01*
X50312781Y-26983710D01*
X50518726Y-26898405D01*
X50711774Y-26786948D01*
X50888624Y-26651247D01*
X50947320Y-26592550D01*
X51008641Y-26559067D01*
X51078333Y-26564051D01*
X51122679Y-26592550D01*
X51165500Y-26635371D01*
X51181378Y-26651249D01*
X51328473Y-26764118D01*
X51358226Y-26786948D01*
X51551274Y-26898405D01*
X51757219Y-26983710D01*
X51972537Y-27041404D01*
X52193543Y-27070500D01*
X52193550Y-27070500D01*
X52416450Y-27070500D01*
X52416457Y-27070500D01*
X52637463Y-27041404D01*
X52852781Y-26983710D01*
X53058726Y-26898405D01*
X53251774Y-26786948D01*
X53428624Y-26651247D01*
X53487320Y-26592550D01*
X53548641Y-26559067D01*
X53618333Y-26564051D01*
X53662679Y-26592550D01*
X53705500Y-26635371D01*
X53721378Y-26651249D01*
X53868473Y-26764118D01*
X53898226Y-26786948D01*
X54091274Y-26898405D01*
X54297219Y-26983710D01*
X54512537Y-27041404D01*
X54733543Y-27070500D01*
X54733550Y-27070500D01*
X54956450Y-27070500D01*
X54956457Y-27070500D01*
X55177463Y-27041404D01*
X55392781Y-26983710D01*
X55598726Y-26898405D01*
X55791774Y-26786948D01*
X55968624Y-26651247D01*
X56027320Y-26592550D01*
X56088641Y-26559067D01*
X56158333Y-26564051D01*
X56202679Y-26592550D01*
X56245500Y-26635371D01*
X56261378Y-26651249D01*
X56408473Y-26764118D01*
X56438226Y-26786948D01*
X56631274Y-26898405D01*
X56837219Y-26983710D01*
X57052537Y-27041404D01*
X57273543Y-27070500D01*
X57273550Y-27070500D01*
X57496450Y-27070500D01*
X57496457Y-27070500D01*
X57717463Y-27041404D01*
X57932781Y-26983710D01*
X58138726Y-26898405D01*
X58331774Y-26786948D01*
X58508624Y-26651247D01*
X58567320Y-26592550D01*
X58628641Y-26559067D01*
X58698333Y-26564051D01*
X58742679Y-26592550D01*
X58785500Y-26635371D01*
X58801378Y-26651249D01*
X58948473Y-26764118D01*
X58978226Y-26786948D01*
X59171274Y-26898405D01*
X59377219Y-26983710D01*
X59592537Y-27041404D01*
X59813543Y-27070500D01*
X59813550Y-27070500D01*
X60036450Y-27070500D01*
X60036457Y-27070500D01*
X60257463Y-27041404D01*
X60472781Y-26983710D01*
X60678726Y-26898405D01*
X60871774Y-26786948D01*
X61048624Y-26651247D01*
X61107320Y-26592550D01*
X61168641Y-26559067D01*
X61238333Y-26564051D01*
X61282679Y-26592550D01*
X61325500Y-26635371D01*
X61341378Y-26651249D01*
X61488473Y-26764118D01*
X61518226Y-26786948D01*
X61711274Y-26898405D01*
X61917219Y-26983710D01*
X62132537Y-27041404D01*
X62353543Y-27070500D01*
X62353550Y-27070500D01*
X62576450Y-27070500D01*
X62576457Y-27070500D01*
X62797463Y-27041404D01*
X63012781Y-26983710D01*
X63218726Y-26898405D01*
X63411774Y-26786948D01*
X63588624Y-26651247D01*
X63746247Y-26493624D01*
X63881948Y-26316774D01*
X63993405Y-26123726D01*
X64078710Y-25917781D01*
X64136404Y-25702463D01*
X64165500Y-25481457D01*
X64165500Y-25258543D01*
X64136404Y-25037537D01*
X64078710Y-24822219D01*
X63993405Y-24616274D01*
X63881948Y-24423226D01*
X63746247Y-24246376D01*
X63746242Y-24246370D01*
X63588629Y-24088757D01*
X63588622Y-24088751D01*
X63411782Y-23953058D01*
X63411780Y-23953057D01*
X63411774Y-23953052D01*
X63218726Y-23841595D01*
X63218722Y-23841593D01*
X63012790Y-23756293D01*
X63012783Y-23756291D01*
X63012781Y-23756290D01*
X62797463Y-23698596D01*
X62797457Y-23698595D01*
X62797452Y-23698594D01*
X62576466Y-23669501D01*
X62576463Y-23669500D01*
X62576457Y-23669500D01*
X62353543Y-23669500D01*
X62353537Y-23669500D01*
X62353533Y-23669501D01*
X62132547Y-23698594D01*
X62132540Y-23698595D01*
X62132537Y-23698596D01*
X62035190Y-23724680D01*
X61917219Y-23756290D01*
X61917209Y-23756293D01*
X61711277Y-23841593D01*
X61711273Y-23841595D01*
X61518226Y-23953052D01*
X61518217Y-23953058D01*
X61341377Y-24088751D01*
X61341370Y-24088757D01*
X61282681Y-24147447D01*
X61221358Y-24180932D01*
X61151666Y-24175948D01*
X61107319Y-24147447D01*
X61048629Y-24088757D01*
X61048622Y-24088751D01*
X60871782Y-23953058D01*
X60871780Y-23953057D01*
X60871774Y-23953052D01*
X60678726Y-23841595D01*
X60678722Y-23841593D01*
X60472790Y-23756293D01*
X60472783Y-23756291D01*
X60472781Y-23756290D01*
X60257463Y-23698596D01*
X60257457Y-23698595D01*
X60257452Y-23698594D01*
X60036466Y-23669501D01*
X60036463Y-23669500D01*
X60036457Y-23669500D01*
X59813543Y-23669500D01*
X59813537Y-23669500D01*
X59813533Y-23669501D01*
X59592547Y-23698594D01*
X59592540Y-23698595D01*
X59592537Y-23698596D01*
X59495190Y-23724680D01*
X59377219Y-23756290D01*
X59377209Y-23756293D01*
X59171277Y-23841593D01*
X59171273Y-23841595D01*
X58978226Y-23953052D01*
X58978217Y-23953058D01*
X58801377Y-24088751D01*
X58801370Y-24088757D01*
X58742681Y-24147447D01*
X58681358Y-24180932D01*
X58611666Y-24175948D01*
X58567319Y-24147447D01*
X58508629Y-24088757D01*
X58508622Y-24088751D01*
X58331782Y-23953058D01*
X58331780Y-23953057D01*
X58331774Y-23953052D01*
X58138726Y-23841595D01*
X58138722Y-23841593D01*
X57932790Y-23756293D01*
X57932783Y-23756291D01*
X57932781Y-23756290D01*
X57717463Y-23698596D01*
X57717457Y-23698595D01*
X57717452Y-23698594D01*
X57496466Y-23669501D01*
X57496463Y-23669500D01*
X57496457Y-23669500D01*
X57273543Y-23669500D01*
X57273537Y-23669500D01*
X57273533Y-23669501D01*
X57052547Y-23698594D01*
X57052540Y-23698595D01*
X57052537Y-23698596D01*
X56955190Y-23724680D01*
X56837219Y-23756290D01*
X56837209Y-23756293D01*
X56631277Y-23841593D01*
X56631273Y-23841595D01*
X56438226Y-23953052D01*
X56438217Y-23953058D01*
X56261377Y-24088751D01*
X56261370Y-24088757D01*
X56202681Y-24147447D01*
X56141358Y-24180932D01*
X56071666Y-24175948D01*
X56027319Y-24147447D01*
X55968629Y-24088757D01*
X55968622Y-24088751D01*
X55791782Y-23953058D01*
X55791780Y-23953057D01*
X55791774Y-23953052D01*
X55598726Y-23841595D01*
X55598722Y-23841593D01*
X55392790Y-23756293D01*
X55392783Y-23756291D01*
X55392781Y-23756290D01*
X55177463Y-23698596D01*
X55177457Y-23698595D01*
X55177452Y-23698594D01*
X54956466Y-23669501D01*
X54956463Y-23669500D01*
X54956457Y-23669500D01*
X54733543Y-23669500D01*
X54733537Y-23669500D01*
X54733533Y-23669501D01*
X54512547Y-23698594D01*
X54512540Y-23698595D01*
X54512537Y-23698596D01*
X54415190Y-23724680D01*
X54297219Y-23756290D01*
X54297209Y-23756293D01*
X54091277Y-23841593D01*
X54091273Y-23841595D01*
X53898226Y-23953052D01*
X53898217Y-23953058D01*
X53721377Y-24088751D01*
X53721370Y-24088757D01*
X53662681Y-24147447D01*
X53601358Y-24180932D01*
X53531666Y-24175948D01*
X53487319Y-24147447D01*
X53428629Y-24088757D01*
X53428622Y-24088751D01*
X53251782Y-23953058D01*
X53251780Y-23953057D01*
X53251774Y-23953052D01*
X53058726Y-23841595D01*
X53058722Y-23841593D01*
X52852790Y-23756293D01*
X52852783Y-23756291D01*
X52852781Y-23756290D01*
X52637463Y-23698596D01*
X52637457Y-23698595D01*
X52637452Y-23698594D01*
X52416466Y-23669501D01*
X52416463Y-23669500D01*
X52416457Y-23669500D01*
X52193543Y-23669500D01*
X52193537Y-23669500D01*
X52193533Y-23669501D01*
X51972547Y-23698594D01*
X51972540Y-23698595D01*
X51972537Y-23698596D01*
X51875190Y-23724680D01*
X51757219Y-23756290D01*
X51757209Y-23756293D01*
X51551277Y-23841593D01*
X51551273Y-23841595D01*
X51358226Y-23953052D01*
X51358217Y-23953058D01*
X51181377Y-24088751D01*
X51181370Y-24088757D01*
X51122681Y-24147447D01*
X51061358Y-24180932D01*
X50991666Y-24175948D01*
X50947319Y-24147447D01*
X50888629Y-24088757D01*
X50888622Y-24088751D01*
X50711782Y-23953058D01*
X50711780Y-23953057D01*
X50711774Y-23953052D01*
X50518726Y-23841595D01*
X50518722Y-23841593D01*
X50312790Y-23756293D01*
X50312783Y-23756291D01*
X50312781Y-23756290D01*
X50097463Y-23698596D01*
X50097457Y-23698595D01*
X50097452Y-23698594D01*
X49876466Y-23669501D01*
X49876463Y-23669500D01*
X49876457Y-23669500D01*
X49653543Y-23669500D01*
X49653537Y-23669500D01*
X49653533Y-23669501D01*
X49432547Y-23698594D01*
X49432540Y-23698595D01*
X49432537Y-23698596D01*
X49335190Y-23724680D01*
X49217219Y-23756290D01*
X49217209Y-23756293D01*
X49011277Y-23841593D01*
X49011273Y-23841595D01*
X48818226Y-23953052D01*
X48818217Y-23953058D01*
X48641377Y-24088751D01*
X48641370Y-24088757D01*
X48483757Y-24246370D01*
X48483751Y-24246377D01*
X48348058Y-24423217D01*
X48348052Y-24423226D01*
X48236595Y-24616273D01*
X48236593Y-24616277D01*
X48151293Y-24822209D01*
X48151290Y-24822219D01*
X48093597Y-25037534D01*
X48093594Y-25037547D01*
X48064501Y-25258533D01*
X48064500Y-25258549D01*
X27170500Y-25258549D01*
X27170500Y-23474500D01*
X27190185Y-23407461D01*
X27242989Y-23361706D01*
X27294500Y-23350500D01*
X95735500Y-23350500D01*
X95802539Y-23370185D01*
G37*
G04 #@! TD.AperFunction*
G04 #@! TA.AperFunction,Conductor*
G36*
X72159075Y-25177007D02*
G01*
X72125000Y-25304174D01*
X72125000Y-25435826D01*
X72159075Y-25562993D01*
X72191988Y-25620000D01*
X70518012Y-25620000D01*
X70550925Y-25562993D01*
X70585000Y-25435826D01*
X70585000Y-25304174D01*
X70550925Y-25177007D01*
X70518012Y-25120000D01*
X72191988Y-25120000D01*
X72159075Y-25177007D01*
G37*
G04 #@! TD.AperFunction*
G04 #@! TA.AperFunction,NonConductor*
G36*
X32498853Y-51490185D02*
G01*
X32544608Y-51542989D01*
X32554552Y-51612147D01*
X32539202Y-51656495D01*
X32512945Y-51701976D01*
X32436657Y-51834109D01*
X32436650Y-51834123D01*
X32348842Y-52046112D01*
X32289453Y-52267759D01*
X32289451Y-52267770D01*
X32259500Y-52495258D01*
X32259500Y-52724741D01*
X32260776Y-52734429D01*
X32289452Y-52952238D01*
X32289453Y-52952240D01*
X32348842Y-53173887D01*
X32436650Y-53385876D01*
X32436657Y-53385891D01*
X32520928Y-53531852D01*
X32537401Y-53599752D01*
X32514548Y-53665779D01*
X32509907Y-53671887D01*
X32400616Y-53806850D01*
X32400616Y-53806851D01*
X32314680Y-53975512D01*
X32265687Y-54158356D01*
X32265687Y-54158357D01*
X32259500Y-54236973D01*
X32259500Y-56063010D01*
X32259501Y-56063029D01*
X32265687Y-56141643D01*
X32265688Y-56141645D01*
X32314680Y-56324488D01*
X32336783Y-56367868D01*
X32400614Y-56493146D01*
X32447059Y-56550500D01*
X32519743Y-56640257D01*
X32626311Y-56726554D01*
X32666853Y-56759385D01*
X32750371Y-56801938D01*
X32835512Y-56845320D01*
X33018355Y-56894312D01*
X33096979Y-56900500D01*
X34923020Y-56900499D01*
X35001645Y-56894312D01*
X35184488Y-56845320D01*
X35313008Y-56779835D01*
X35353146Y-56759385D01*
X35353147Y-56759383D01*
X35353149Y-56759383D01*
X35500257Y-56640257D01*
X35535721Y-56596463D01*
X35593208Y-56556752D01*
X35632086Y-56550500D01*
X54588532Y-56550500D01*
X54655571Y-56570185D01*
X54676213Y-56586819D01*
X56067213Y-57977819D01*
X56100698Y-58039142D01*
X56095714Y-58108834D01*
X56053842Y-58164767D01*
X55988378Y-58189184D01*
X55979532Y-58189500D01*
X31891468Y-58189500D01*
X31824429Y-58169815D01*
X31803787Y-58153181D01*
X30946819Y-57296213D01*
X30913334Y-57234890D01*
X30910500Y-57208532D01*
X30910500Y-52801468D01*
X30930185Y-52734429D01*
X30946819Y-52713787D01*
X32153787Y-51506819D01*
X32180714Y-51492115D01*
X32206533Y-51475523D01*
X32212733Y-51474631D01*
X32215110Y-51473334D01*
X32241468Y-51470500D01*
X32431814Y-51470500D01*
X32498853Y-51490185D01*
G37*
G04 #@! TD.AperFunction*
G04 #@! TA.AperFunction,NonConductor*
G36*
X57215571Y-48950185D02*
G01*
X57236213Y-48966819D01*
X72708181Y-64438787D01*
X72741666Y-64500110D01*
X72744500Y-64526468D01*
X72744500Y-67164530D01*
X72738262Y-67185772D01*
X72736684Y-67207857D01*
X72728610Y-67218643D01*
X72724815Y-67231569D01*
X72708084Y-67246065D01*
X72694816Y-67263793D01*
X72682191Y-67268502D01*
X72672011Y-67277324D01*
X72650099Y-67280474D01*
X72629353Y-67288214D01*
X72616187Y-67285350D01*
X72602853Y-67287268D01*
X72582712Y-67278070D01*
X72561079Y-67273365D01*
X72543349Y-67260093D01*
X72539297Y-67258243D01*
X72532823Y-67252216D01*
X72517365Y-67236758D01*
X72517361Y-67236755D01*
X56982582Y-51701976D01*
X56982573Y-51701966D01*
X56913000Y-51632393D01*
X56822365Y-51541758D01*
X56822361Y-51541755D01*
X56822357Y-51541751D01*
X56644025Y-51412187D01*
X56644024Y-51412186D01*
X56644022Y-51412185D01*
X56557097Y-51367894D01*
X56447606Y-51312104D01*
X56447603Y-51312103D01*
X56237952Y-51243985D01*
X56129086Y-51226742D01*
X56020222Y-51209499D01*
X55799778Y-51209499D01*
X55794667Y-51209499D01*
X55794643Y-51209500D01*
X35588186Y-51209500D01*
X35521147Y-51189815D01*
X35475392Y-51137011D01*
X35465448Y-51067853D01*
X35480797Y-51023504D01*
X35583344Y-50845888D01*
X35671158Y-50633887D01*
X35730548Y-50412238D01*
X35760500Y-50184734D01*
X35760500Y-49955266D01*
X35730548Y-49727762D01*
X35671158Y-49506113D01*
X35583344Y-49294112D01*
X35480798Y-49116497D01*
X35464326Y-49048600D01*
X35487178Y-48982573D01*
X35542100Y-48939383D01*
X35588186Y-48930500D01*
X57148532Y-48930500D01*
X57215571Y-48950185D01*
G37*
G04 #@! TD.AperFunction*
M02*
