M48
METRIC
T1C1.000
%
G90
G05
T1
X34.01Y-42.45
X34.01Y-44.99
X34.01Y-47.53
X34.01Y-50.07
X34.01Y-52.61
X34.01Y-55.15
X49.765Y-25.37
X49.765Y-73.63
X52.305Y-25.37
X52.305Y-73.63
X54.845Y-25.37
X54.845Y-73.63
X57.385Y-25.37
X57.385Y-73.63
X59.925Y-25.37
X59.925Y-73.63
X62.465Y-25.37
X62.465Y-73.63
X65.005Y-73.63
X67.545Y-25.37
X67.545Y-73.63
X70.085Y-25.37
X71.605Y-73.63
X72.625Y-25.37
X74.145Y-73.63
X75.165Y-25.37
X76.685Y-73.63
X77.705Y-25.37
X79.225Y-73.63
X80.245Y-25.37
X81.765Y-73.63
X82.785Y-25.37
X84.305Y-73.63
X85.325Y-25.37
X86.845Y-73.63
X89.385Y-73.63
X91.925Y-73.63
X94.465Y-73.63
M30
